<?xml version="1.0" standalone="no"?>
<!DOCTYPE svg PUBLIC "-//W3C//DTD SVG 20010904//EN"
 "http://www.w3.org/TR/2001/REC-SVG-20010904/DTD/svg10.dtd">
<svg version="1.0" xmlns="http://www.w3.org/2000/svg"
 width="688.000000pt" height="1024.000000pt" viewBox="0 0 688.000000 1024.000000"
 preserveAspectRatio="xMidYMid meet">

<g transform="translate(0.000000,1024.000000) scale(0.100000,-0.100000)"
fill="#000000" stroke="none">
<path d="M3398 9863 c7 -3 16 -2 19 1 4 3 -2 6 -13 5 -11 0 -14 -3 -6 -6z"/>
<path d="M3238 9853 c7 -3 16 -2 19 1 4 3 -2 6 -13 5 -11 0 -14 -3 -6 -6z"/>
<path d="M3433 9813 c9 -2 25 -2 35 0 9 3 1 5 -18 5 -19 0 -27 -2 -17 -5z"/>
<path d="M3498 9803 c7 -3 16 -2 19 1 4 3 -2 6 -13 5 -11 0 -14 -3 -6 -6z"/>
<path d="M3363 9783 c-9 -7 -13 -85 -15 -300 -2 -232 0 -289 10 -281 23 19 40
-9 40 -68 0 -51 -2 -54 -18 -39 -9 8 -20 12 -23 8 -9 -8 -9 -82 -1 -161 7 -68
23 -83 55 -51 16 16 19 29 15 67 -3 26 -3 38 0 27 8 -26 24 -44 24 -25 0 8 11
-1 24 -19 16 -22 23 -43 21 -64 -15 -160 -17 -168 -41 -177 -29 -11 -32 -20
-5 -13 17 4 19 -5 26 -117 6 -99 5 -124 -6 -131 -17 -11 -90 -12 -105 -1 -6 4
-17 37 -24 74 -12 59 -12 70 1 85 17 20 14 53 -5 53 -7 0 -36 7 -65 16 -68 20
-55 37 23 32 55 -3 56 -3 56 25 0 15 5 27 10 27 6 0 10 5 10 11 0 5 -4 7 -10
4 -5 -3 -10 1 -10 9 0 19 -23 11 -98 -33 -52 -30 -53 -31 -47 -9 11 38 35 87
46 93 5 4 17 1 25 -6 8 -7 28 -13 44 -13 27 -1 30 2 30 28 0 45 -60 77 -74 40
-3 -8 -10 -12 -16 -9 -18 11 -11 42 20 80 30 38 39 62 19 49 -8 -4 -9 1 -5 17
7 24 7 24 -8 -1 -19 -30 -20 -20 -4 31 6 22 15 39 20 39 4 0 8 6 8 13 0 6 -14
-4 -30 -23 -30 -36 -42 -31 -16 6 8 11 16 38 18 60 l3 39 14 -26 c7 -14 19
-26 27 -26 8 0 10 5 5 11 -4 6 -9 31 -10 56 -2 60 -26 149 -44 163 -9 7 -17
21 -20 32 -4 17 -5 16 -6 -5 l-2 -25 -15 25 c-13 21 -15 22 -11 4 5 -25 -22
-29 -40 -5 -11 14 -12 14 -13 1 -1 -8 -6 -4 -12 10 -10 24 -10 24 -18 5 -5
-11 -9 -15 -10 -10 0 6 -7 1 -15 -9 -11 -14 -15 -16 -15 -5 0 11 -2 12 -9 0
-6 -9 -11 -10 -15 -2 -10 16 -26 13 -26 -5 0 -11 -5 -14 -16 -10 -13 5 -15 1
-10 -18 4 -17 -2 -34 -24 -60 -40 -51 -54 -99 -45 -155 3 -25 6 -63 5 -85 0
-21 6 -49 15 -62 18 -29 2 -33 -27 -7 -10 9 -20 14 -23 11 -3 -3 17 -28 44
-56 30 -31 49 -60 48 -72 -2 -23 -17 -28 -17 -4 0 8 -4 13 -9 9 -5 -3 -16 4
-24 16 l-15 21 -5 -23 c-3 -15 -5 -9 -6 16 -1 30 -4 36 -11 25 -7 -11 -10 -6
-10 22 0 20 -4 39 -9 42 -15 9 -21 67 -10 88 6 12 7 18 1 14 -6 -3 -13 14 -17
41 -6 42 -4 49 14 62 20 13 31 39 12 27 -13 -8 -19 14 -27 97 -4 51 -3 76 5
81 6 4 9 17 6 29 -4 13 -2 34 4 47 5 14 10 18 11 10 0 -8 8 -24 16 -35 16 -19
16 -19 9 5 -18 62 -48 60 -64 -6 -15 -59 -21 -56 -15 9 13 118 62 221 143 296
l36 33 -35 -25 c-48 -34 -112 -130 -134 -202 -21 -66 -26 -197 -13 -305 7 -52
6 -63 -4 -52 -18 17 -56 15 -63 -4 -35 -90 68 -364 124 -329 5 3 12 -11 15
-32 3 -21 18 -75 32 -121 21 -69 25 -96 21 -166 -7 -131 -27 -151 -260 -258
-214 -98 -239 -107 -363 -133 -60 -12 -137 -35 -170 -51 -201 -94 -362 -422
-340 -691 l7 -81 -51 -119 c-33 -78 -60 -161 -76 -239 -14 -65 -33 -150 -42
-189 -16 -72 -64 -179 -113 -250 -102 -150 -146 -262 -215 -544 -82 -341 -125
-476 -206 -658 -26 -59 -30 -63 -107 -103 -53 -27 -125 -80 -210 -153 -71 -62
-142 -122 -158 -134 l-29 -22 24 -21 c13 -11 32 -20 42 -20 29 0 87 26 157 72
34 22 65 38 68 35 10 -10 -45 -163 -112 -316 -94 -211 -105 -263 -63 -276 32
-11 54 18 136 177 71 137 113 200 113 168 0 -6 -25 -86 -56 -176 -30 -90 -58
-188 -61 -218 -5 -47 -3 -55 15 -65 42 -22 65 5 107 128 44 129 107 281 115
281 4 0 2 -28 -6 -62 -7 -35 -25 -118 -39 -185 -29 -134 -26 -163 20 -163 36
0 49 28 95 210 61 236 64 240 70 95 l6 -120 2 122 c1 67 -2 124 -7 127 -22 14
-53 -71 -91 -251 -19 -89 -43 -163 -55 -163 -3 0 -3 12 0 28 5 25 5 26 -5 4
-5 -13 -14 -21 -20 -17 -6 4 -7 -1 -3 -11 4 -12 3 -15 -5 -10 -16 10 -15 57 4
141 8 39 24 112 35 164 38 177 -1 156 -76 -42 -99 -260 -108 -276 -141 -263
-25 10 -13 70 56 278 42 123 58 184 51 191 -22 22 -57 -29 -166 -238 -54 -105
-62 -115 -86 -115 -13 0 -19 7 -19 23 0 30 33 127 54 159 21 32 108 239 135
321 13 37 27 67 32 67 12 0 13 3 -26 -101 -20 -50 -34 -94 -31 -96 2 -3 7 4
10 15 4 11 32 43 64 72 31 29 79 74 106 99 l48 46 -38 6 c-35 5 -36 6 -9 8 17
0 45 5 63 11 17 5 45 14 61 19 l28 9 -18 -37 c-10 -20 -43 -97 -73 -171 -43
-106 -50 -129 -31 -105 14 17 25 27 26 23 1 -5 2 -13 3 -20 0 -6 6 -13 13 -15
14 -5 31 47 62 192 12 55 27 109 33 119 8 15 7 22 -8 33 -11 8 -18 26 -18 50
-1 36 -3 38 -38 41 -20 2 -51 -1 -70 -7 l-33 -9 35 -1 c19 -1 42 -5 50 -11 19
-12 -18 -26 -105 -40 -35 -6 -76 -15 -91 -20 -14 -6 -30 -8 -35 -4 -5 3 -9 1
-9 -5 0 -5 5 -13 11 -17 10 -6 -96 -74 -168 -109 -18 -8 -33 -19 -33 -25 0 -5
-8 -8 -18 -7 -14 1 -1 17 46 61 70 65 132 115 145 116 5 0 23 11 40 24 49 37
179 109 212 117 27 6 28 7 5 8 -35 1 -177 -72 -260 -136 -39 -30 -74 -52 -77
-50 -9 10 125 109 205 151 l83 43 56 129 c54 127 73 163 58 114 -16 -52 -16
-55 -4 -36 16 25 139 335 139 350 0 7 13 33 29 58 35 55 62 144 55 178 -5 21
-4 22 6 10 9 -12 11 -9 6 17 -8 50 41 261 69 293 17 19 61 123 75 177 6 23 17
49 25 56 8 8 11 18 7 23 -4 5 1 2 11 -6 14 -10 18 -24 15 -56 -1 -23 0 -40 5
-37 9 5 9 8 -8 -57 -8 -30 -15 -72 -15 -92 0 -20 -5 -49 -10 -64 -8 -20 -8
-29 1 -34 16 -11 -14 -119 -58 -207 -21 -39 -38 -71 -40 -69 -1 1 10 33 26 72
46 113 45 125 -2 29 -25 -49 -52 -99 -61 -110 -20 -23 -18 -18 13 48 21 45 22
80 0 47 -6 -10 -7 -4 -3 20 11 58 -11 22 -30 -50 -9 -36 -26 -86 -37 -112 -23
-57 -26 -97 -3 -55 18 34 27 35 14 2 -14 -37 2 -30 28 13 25 40 24 31 -3 -33
l-17 -40 26 24 c39 37 31 14 -23 -64 -127 -181 -284 -420 -285 -432 -1 -9 23
-24 64 -38 35 -13 65 -23 65 -22 4 12 158 319 224 447 52 100 87 158 89 147 3
-14 10 -6 28 28 14 25 22 51 18 57 -4 6 -3 8 3 5 7 -4 10 5 8 26 -1 17 3 43
11 57 18 34 80 100 93 100 6 0 11 4 11 8 0 4 14 16 30 25 41 25 39 6 -6 -62
-20 -29 -31 -50 -25 -47 6 4 11 4 11 0 0 -14 -102 -164 -112 -164 -5 0 -1 12
10 28 26 38 34 52 28 52 -3 0 -23 -25 -45 -57 -40 -55 -47 -79 -17 -53 14 10
13 8 0 -19 -8 -17 -12 -36 -8 -42 4 -7 3 -9 -4 -5 -6 3 -22 -8 -35 -26 -35
-48 -38 -55 -21 -55 9 0 13 6 9 16 -5 13 -4 13 6 4 13 -13 -2 -40 -91 -163
-58 -80 -182 -287 -184 -307 -1 -9 19 -22 49 -34 58 -22 65 -23 65 -8 0 11 70
129 76 129 2 0 -24 -57 -57 -126 -53 -113 -59 -133 -59 -191 0 -70 -14 -78
-23 -12 -3 23 -15 51 -26 62 -17 18 -24 19 -43 8 -39 -20 -50 -75 -34 -177 8
-49 17 -116 21 -149 4 -33 10 -62 15 -65 4 -3 10 -16 14 -30 6 -19 5 -21 -3
-10 -9 12 -11 11 -11 -8 0 -15 4 -21 12 -16 7 5 9 2 5 -8 -3 -9 -9 -60 -12
-115 -11 -155 -31 -209 -62 -167 -14 19 -15 19 -11 -1 4 -25 40 -31 58 -10 7
8 19 75 27 151 8 75 29 208 48 295 20 90 35 186 35 223 0 116 58 228 318 616
91 135 184 286 208 335 52 110 115 292 139 400 10 44 48 154 86 245 37 91 75
192 84 225 10 33 20 64 22 69 3 4 19 -43 35 -105 16 -63 47 -172 70 -244 45
-144 78 -310 78 -392 0 -29 -12 -108 -27 -175 -21 -96 -27 -151 -28 -253 -1
-112 -5 -146 -32 -245 -33 -122 -34 -129 -88 -515 -53 -382 -59 -458 -59 -760
-1 -389 31 -621 139 -1025 58 -214 58 -411 0 -695 -67 -336 -66 -435 10 -799
63 -303 85 -448 92 -607 5 -108 3 -145 -9 -181 -9 -26 -14 -64 -11 -89 5 -52
-18 -146 -49 -197 -12 -20 -56 -73 -98 -117 -95 -99 -110 -121 -110 -161 0
-25 8 -37 38 -58 21 -14 45 -26 54 -26 9 0 20 -5 23 -10 3 -6 19 -10 34 -10
16 0 43 -6 62 -14 22 -9 42 -11 63 -5 21 6 34 5 45 -5 45 -39 114 -26 189 35
53 44 65 64 82 143 8 35 23 63 50 93 36 38 40 48 40 96 0 29 -7 77 -16 106
-12 43 -13 61 -3 105 13 60 10 103 -16 196 -35 129 5 387 131 845 25 90 28
116 28 260 -1 104 -6 193 -17 255 -25 139 -22 178 29 381 57 231 80 365 94
549 14 196 16 207 65 435 68 310 74 354 89 594 8 122 17 225 20 228 3 3 20 9
38 13 32 8 31 8 -14 9 -34 1 -54 8 -77 27 -40 33 -260 359 -358 528 -110 190
-159 259 -267 375 -23 24 -32 39 -21 33 11 -6 29 -20 39 -31 11 -12 23 -21 28
-21 10 0 26 -13 65 -50 19 -18 24 -20 20 -7 -7 18 8 24 18 7 3 -5 11 -10 16
-10 6 0 7 5 4 10 -3 6 -1 10 5 10 7 0 10 7 6 15 -3 8 -1 15 5 15 5 0 -10 29
-35 63 -24 35 -46 73 -48 83 -2 10 -9 18 -15 17 -7 -2 -17 13 -23 32 -6 19
-16 38 -22 41 -7 5 -8 2 -3 -6 5 -9 4 -11 -3 -6 -7 4 -12 14 -12 23 0 9 -3 14
-6 10 -4 -3 -15 4 -25 16 -10 12 -18 18 -19 14 0 -13 39 -85 51 -93 14 -8 69
-95 69 -108 0 -5 -11 4 -23 22 -13 17 -26 29 -29 26 -3 -3 -9 7 -12 21 -4 16
-11 23 -18 19 -7 -4 -8 -3 -4 5 4 6 3 17 -2 24 -5 7 -32 57 -59 112 -43 85
-50 106 -46 143 3 23 8 42 12 42 3 0 24 -18 45 -40 22 -22 60 -54 86 -70 25
-16 53 -42 62 -57 21 -35 88 -101 88 -86 0 6 -7 16 -15 23 -9 7 -25 27 -37 43
-20 28 -20 29 -2 23 21 -6 24 5 25 94 0 24 5 50 11 57 13 16 2 77 -19 110 -14
21 -14 26 -2 34 11 7 9 13 -11 29 -14 11 -19 20 -11 20 11 0 11 3 1 15 -10 12
-10 15 1 15 16 0 43 37 44 60 0 8 -5 30 -12 48 -7 18 -8 30 -3 27 19 -12 10
57 -11 87 -12 17 -18 33 -13 37 33 22 53 64 47 99 -3 20 -5 50 -4 66 1 22 -2
27 -15 22 -8 -3 -18 -6 -21 -6 -3 0 0 -7 7 -15 10 -13 9 -15 -9 -15 -18 0 -21
-4 -16 -20 5 -16 3 -19 -11 -13 -10 3 -15 2 -12 -3 4 -5 -7 -9 -22 -9 -15 0
-26 3 -24 7 2 3 -15 16 -39 27 -24 12 -58 37 -75 57 -32 36 -40 50 -23 40 5
-3 11 0 14 8 11 29 59 33 120 11 32 -11 55 -24 51 -28 -4 -4 -2 -7 5 -7 7 0
19 -7 28 -15 20 -21 28 -12 13 15 -10 18 -8 24 13 40 14 11 28 36 32 57 18 91
14 101 -29 82 -28 -13 -33 -25 -13 -32 7 -2 1 -10 -15 -17 -15 -7 -25 -17 -22
-21 3 -5 -6 -9 -20 -9 -14 0 -28 5 -31 11 -4 6 -13 8 -21 5 -7 -3 -16 0 -20 6
-4 6 -3 8 4 4 6 -3 13 -2 17 4 3 5 1 10 -6 10 -9 0 -9 3 0 14 7 8 41 20 76 27
69 14 80 23 40 33 -15 4 -23 11 -19 17 4 6 0 15 -7 20 -9 6 3 9 36 9 28 1 73
5 100 10 58 9 64 7 42 -17 -53 -59 -78 -354 -31 -370 6 -2 33 15 61 37 28 22
55 40 61 40 6 0 20 12 31 28 11 15 21 21 21 14 0 -7 11 -2 26 13 14 15 33 24
40 21 8 -3 17 1 20 9 4 8 14 15 24 15 11 0 22 5 25 11 4 5 12 8 18 6 17 -6 65
20 77 42 13 25 13 165 0 212 -13 45 -41 59 -94 47 -21 -5 -40 -7 -42 -5 -2 2
12 21 32 43 37 41 53 71 58 113 2 14 8 44 14 66 9 32 10 160 2 160 -4 0 -10
45 -12 102 -2 35 -6 63 -10 63 -3 0 -4 10 -1 21 4 15 0 27 -13 36 -10 8 -19
19 -19 26 0 16 -61 19 -170 9 -87 -9 -88 -9 -27 -11 42 -1 61 -5 56 -12 -3 -6
-16 -8 -28 -5 -11 2 -46 1 -76 -3 l-55 -9 78 -1 c53 -1 76 -5 75 -13 -2 -6 22
-19 52 -29 l55 -17 -45 -1 c-36 -1 -41 -4 -27 -12 28 -16 20 -29 -15 -22 -22
4 -29 3 -24 -5 4 -7 14 -12 22 -12 8 0 14 -4 14 -9 0 -5 -19 -7 -42 -5 l-43 4
29 -14 c16 -7 31 -22 32 -32 2 -10 8 -20 14 -22 5 -2 7 -9 3 -15 -4 -7 0 -8
13 -3 10 4 15 4 11 0 -4 -4 -1 -14 6 -22 10 -13 6 -14 -33 -9 l-45 7 70 -34
c88 -43 79 -45 -27 -6 -94 35 -256 80 -278 79 -8 0 1 -5 20 -10 96 -27 330
-122 330 -134 0 -3 -23 4 -51 14 -41 16 -55 17 -70 8 -18 -11 -18 -12 2 -33
l21 -22 -39 9 c-74 17 -70 10 21 -45 33 -20 58 -36 55 -36 -2 0 -40 14 -82 30
-91 35 -94 35 -76 13 11 -13 11 -17 1 -21 -9 -3 -10 -7 -2 -17 35 -42 -200 68
-319 149 -77 53 -93 72 -70 86 15 10 15 9 -21 33 l-24 17 32 6 c17 4 29 10 27
15 -3 4 -13 5 -22 2 -10 -4 -14 -2 -10 4 4 7 42 9 99 7 111 -4 58 9 -85 21
-90 7 -105 19 -39 30 60 10 76 28 18 20 -27 -4 -56 -9 -65 -12 -9 -3 -1 9 18
26 18 17 30 31 24 31 -5 0 -14 -5 -21 -12 -9 -9 -12 -9 -12 0 0 16 97 63 195
95 89 29 318 94 380 109 22 5 48 11 58 14 9 3 17 1 17 -4 0 -14 -79 -48 -157
-68 -40 -10 -73 -21 -73 -24 0 -4 35 0 78 7 42 8 98 13 124 11 25 -2 44 0 41
5 -2 4 2 7 9 7 7 0 19 4 27 9 11 7 9 14 -12 34 -34 30 -33 33 1 42 25 7 25 8
7 15 -11 5 -29 7 -40 6 -11 -2 -14 -1 -7 1 25 9 10 19 -60 43 -91 31 -164 31
-241 1 -72 -28 -68 -38 7 -16 73 21 105 16 53 -9 -50 -25 -41 -31 17 -11 25 9
52 12 59 8 6 -4 23 -6 37 -5 24 3 25 2 5 -13 -18 -15 -16 -15 40 -10 l60 6
-40 -16 c-22 -8 -118 -38 -214 -66 -188 -54 -225 -68 -344 -124 -43 -20 -81
-35 -83 -32 -2 2 16 23 41 46 24 22 41 41 36 41 -5 0 -14 -7 -21 -16 -8 -8
-23 -20 -34 -26 -20 -11 -20 -10 -6 8 26 33 34 39 117 94 45 29 80 56 78 61
-7 10 125 73 200 95 l60 18 -60 11 c-35 6 -70 8 -84 3 -13 -5 -26 -6 -29 -3
-3 3 0 5 6 5 7 0 12 4 12 9 0 14 -104 59 -190 83 -202 56 -205 58 -110 73 25
4 61 13 82 21 33 11 36 11 31 -3 -5 -13 -2 -15 11 -10 10 4 15 3 11 -3 -3 -6
1 -10 10 -10 10 0 14 5 10 13 -4 6 2 2 12 -11 15 -18 21 -20 31 -10 16 16 16
31 0 23 -7 -4 -4 2 7 12 11 10 27 27 35 38 14 17 13 18 -4 12 -33 -13 0 19 35
34 26 10 32 10 40 -2 5 -8 9 -9 9 -3 0 6 14 17 30 24 17 7 30 17 30 22 0 5 5
6 10 3 6 -3 10 -2 10 4 0 10 87 66 102 66 4 0 14 9 22 20 9 11 16 16 16 11 0
-15 -42 -79 -101 -151 -53 -66 -74 -108 -81 -164 -3 -22 -5 -23 -18 -10 -8 8
-22 14 -30 14 -8 -1 -25 2 -37 7 -13 4 -23 4 -23 0 0 -20 175 -63 330 -81
l165 -20 33 -37 c17 -21 32 -35 32 -31 0 3 -24 59 -54 124 -99 217 -175 470
-131 433 7 -5 14 -7 17 -4 3 3 18 -20 33 -50 15 -31 30 -56 34 -56 21 -1 70
-153 76 -240 3 -38 16 -90 30 -125 20 -46 24 -52 20 -25 -6 32 -4 30 20 -18
19 -37 32 -51 42 -48 8 3 24 6 36 7 20 1 20 1 -2 8 -14 4 -26 13 -29 21 -2 10
-1 11 5 4 5 -7 16 -8 28 -3 11 4 14 8 7 8 -19 1 -44 29 -38 40 4 5 0 11 -6 14
-24 8 -3 16 55 19 61 4 65 0 47 -46 -5 -14 -17 -26 -27 -27 -15 0 -16 -1 -2
-7 11 -5 16 -24 18 -72 1 -35 5 -68 7 -72 12 -19 -13 -5 -43 24 l-33 32 0 -56
c0 -39 6 -62 19 -79 19 -24 19 -25 0 -48 -18 -22 -19 -43 -19 -300 0 -268 1
-277 23 -316 23 -40 112 -110 128 -100 5 3 21 -1 36 -9 32 -18 26 -21 -12 -6
-14 5 -24 6 -21 1 8 -13 163 -61 179 -56 32 13 37 41 22 141 -8 53 -15 99 -15
101 0 2 6 1 13 -3 6 -4 3 3 -8 17 -11 13 -21 26 -23 29 -5 7 9 -82 19 -119 5
-19 7 -37 4 -39 -9 -9 -73 65 -79 91 -4 16 -3 26 2 23 5 -3 7 5 5 18 -3 13 1
27 8 31 8 5 10 4 5 -3 -5 -8 -2 -10 8 -6 22 8 20 11 -14 29 -53 27 -171 10
-185 -28 -7 -16 36 -96 64 -121 11 -10 18 -23 15 -30 -3 -7 4 -21 16 -31 11
-10 20 -23 20 -29 0 -6 -11 3 -25 19 -13 17 -22 35 -20 42 2 7 -6 20 -18 30
-13 10 -27 27 -32 38 -8 19 -9 19 -12 -2 -3 -12 5 -44 16 -70 19 -43 19 -46 2
-26 -10 12 -24 48 -31 81 -8 38 -17 59 -24 56 -17 -7 -56 34 -50 51 4 8 10 15
15 15 5 0 9 7 9 15 0 8 9 29 20 47 l21 33 -7 -30 c-8 -31 -8 -64 -1 -71 2 -2
26 5 52 17 48 21 121 23 170 4 16 -7 15 -4 -5 13 -14 12 -19 21 -12 22 6 0 12
6 12 14 0 7 6 19 14 25 12 10 18 7 30 -18 9 -16 16 -39 16 -50 0 -11 4 -23 10
-26 16 -10 -1 56 -28 110 -15 28 -26 54 -27 59 0 12 -34 24 -68 25 -34 1 -87
-25 -87 -42 0 -7 -11 -28 -24 -46 l-24 -33 3 77 c3 60 7 80 22 91 10 7 25 11
33 7 60 -24 89 -31 113 -26 20 4 27 2 27 -10 0 -14 76 -57 103 -57 7 0 20 -9
30 -20 9 -11 13 -20 7 -20 -5 0 -12 5 -15 10 -3 6 -11 10 -17 10 -7 0 -5 -7 4
-17 31 -36 30 -47 -1 -18 -27 25 -34 27 -42 15 -5 -8 -7 -24 -4 -35 3 -11 12
-62 21 -114 19 -108 14 -184 -14 -242 -14 -28 -16 -39 -7 -39 7 0 16 12 19 28
11 44 28 82 38 82 5 0 4 -9 -2 -19 -14 -26 -13 -74 2 -89 9 -9 9 -12 -2 -12
-13 0 -13 -2 0 -11 13 -9 13 -10 0 -6 -8 2 -14 11 -12 20 1 8 -2 18 -8 22 -9
6 -15 -8 -11 -29 1 -5 -11 -5 -26 -2 -15 4 -48 11 -73 17 -150 32 -288 107
-275 149 3 10 1 21 -5 25 -5 3 -10 3 -10 -2 -4 -55 -5 -694 -3 -980 2 -160 -1
-253 -7 -253 -6 0 -10 5 -10 11 0 5 -4 8 -9 5 -5 -3 -14 1 -20 8 -10 12 -8 15
11 19 16 4 14 5 -7 4 -55 -3 -41 -67 15 -67 l28 0 -1 -80 c-1 -44 1 -78 5 -77
8 2 108 -94 108 -104 0 -9 -48 -27 -85 -32 l-30 -4 32 -2 c17 0 44 4 60 9 l28
10 -24 -20 c-14 -12 -38 -20 -59 -20 -19 0 -32 -3 -29 -7 14 -13 68 -4 98 18
l31 21 28 -33 c34 -39 80 -125 80 -149 0 -9 -11 -32 -25 -50 -14 -19 -35 -61
-47 -92 -16 -45 -29 -63 -57 -80 -60 -35 -72 -49 -60 -64 8 -10 7 -18 -5 -29
-9 -9 -16 -23 -16 -30 0 -7 -7 -21 -16 -29 -9 -9 -11 -16 -4 -16 6 0 17 15 25
34 8 19 19 38 25 41 6 4 10 15 8 26 -2 13 13 31 46 57 39 29 53 48 67 89 10
29 25 63 34 75 16 22 17 22 10 -24 -8 -60 4 -168 19 -165 6 1 12 -8 14 -20 2
-15 -9 -34 -35 -59 -48 -47 -106 -73 -160 -74 -23 0 -44 -4 -48 -9 -9 -16 -13
-191 -4 -191 5 0 33 -24 63 -54 91 -91 162 -115 244 -81 20 9 47 26 61 38 l23
22 -7 -25 c-4 -14 -39 -76 -78 -139 -78 -125 -107 -195 -106 -256 l1 -40 12
50 c19 72 32 100 78 171 46 70 61 81 48 33 -5 -17 -16 -89 -26 -161 -10 -83
-28 -165 -49 -227 -55 -163 -59 -189 -45 -301 7 -55 15 -100 17 -100 3 0 2 43
-2 95 -5 64 -3 112 5 148 15 62 60 180 67 173 10 -10 33 -195 33 -268 0 -42
-7 -136 -16 -210 -22 -179 -23 -464 -2 -588 9 -52 18 -120 19 -150 2 -30 11
-82 20 -115 10 -33 17 -76 17 -95 -1 -19 1 -53 5 -75 5 -28 4 -34 -2 -20 -11
22 -15 6 -5 -19 3 -9 11 -13 17 -9 6 3 7 1 3 -5 -4 -6 -1 -20 5 -30 12 -19 10
-37 -26 -275 -21 -134 -10 -269 34 -452 44 -180 59 -264 81 -447 24 -199 25
-267 5 -315 -18 -42 -18 -46 -5 -38 6 4 10 -17 10 -54 0 -34 -4 -61 -10 -61
-14 0 -23 45 -16 77 5 21 4 24 -4 13 -14 -22 -12 -73 4 -96 11 -13 13 -35 10
-74 -8 -82 10 -178 40 -209 17 -18 27 -43 32 -81 8 -65 25 -103 56 -124 36
-25 56 -20 30 7 -30 32 -28 43 10 51 27 5 36 2 50 -16 l18 -23 0 31 c0 17 -11
53 -25 79 -13 27 -23 50 -21 52 12 12 38 -16 47 -51 18 -68 38 -106 81 -157
43 -51 56 -57 76 -37 14 14 -20 83 -82 166 -21 29 -36 55 -33 58 13 13 57 -8
71 -34 15 -29 66 -81 66 -68 0 5 7 3 15 -4 8 -7 15 -17 15 -22 0 -6 -7 -5 -15
2 -12 10 -15 10 -15 -3 0 -21 27 -42 33 -25 3 9 9 7 22 -7 14 -17 14 -15 -2
14 -10 18 -42 60 -70 93 -29 32 -53 63 -53 68 0 20 26 15 45 -9 36 -46 65 -90
65 -99 0 -5 9 -17 20 -27 11 -10 20 -13 20 -8 0 6 -7 16 -15 23 -8 7 -15 18
-15 24 0 6 12 -2 26 -18 20 -23 28 -26 34 -15 6 9 -1 22 -23 41 -18 15 -35 27
-39 28 -5 0 -8 5 -8 11 0 6 21 -5 48 -24 100 -72 97 -61 -16 56 -71 74 -98
111 -136 187 -43 86 -47 100 -42 145 4 28 2 64 -4 80 -9 28 -9 26 -7 -17 1
-25 -1 -44 -5 -42 -25 16 24 517 98 994 22 140 22 340 0 458 -10 57 -14 111
-10 140 5 40 2 57 -19 98 -31 62 -42 160 -27 245 14 84 -6 191 -54 286 -34 68
-34 72 -31 169 2 54 9 172 16 262 6 90 9 165 6 168 -3 3 -8 -34 -12 -83 -10
-143 -10 -142 -24 -79 -9 41 -11 88 -6 151 8 115 19 136 37 72 6 -26 16 -47
20 -47 4 0 8 -6 8 -14 0 -7 18 -54 40 -104 29 -64 40 -103 40 -138 0 -26 3
-45 6 -42 15 16 4 119 -20 176 -14 34 -36 97 -49 141 -22 77 -23 85 -10 188 7
60 18 159 25 221 7 61 15 112 19 112 12 0 22 -146 16 -228 -5 -80 8 -230 24
-266 6 -14 7 -5 2 24 -8 50 -11 470 -3 470 3 0 24 -33 48 -72 56 -96 54 -68
-4 45 -74 146 -74 146 -54 277 22 141 29 170 42 170 6 0 8 7 4 15 -3 8 6 36
19 62 30 56 31 72 4 158 -22 71 -52 109 -97 120 -21 5 -31 1 -47 -19 -12 -14
-26 -26 -32 -26 -22 0 -63 42 -63 65 0 14 -13 39 -29 58 -21 23 -27 37 -20 48
5 7 9 29 9 47 0 58 52 152 85 152 19 0 62 53 73 90 6 19 16 67 23 107 14 82 4
119 -51 206 -27 44 -101 107 -123 107 -6 0 10 -13 36 -30 50 -31 95 -93 124
-168 16 -43 16 -50 -1 -130 -24 -120 -38 -148 -80 -166 -40 -17 -83 -76 -91
-126 -14 -78 -15 -81 -53 -97 -20 -8 -45 -22 -54 -30 -19 -17 -16 -21 -39 52
-19 66 -57 153 -123 285 -51 102 -62 132 -59 161 4 33 -18 99 -33 99 -3 0 -4
-18 -2 -40 l4 -41 -19 23 c-12 16 -16 34 -13 58 5 33 4 33 -8 12 l-12 -23 -14
26 c-13 24 -12 28 3 36 18 10 23 44 8 53 -4 3 -6 -5 -4 -18 6 -30 -23 -44 -32
-16 -4 11 -4 24 -1 29 3 5 -1 11 -9 15 -24 9 -19 60 7 71 13 6 24 19 25 30 2
14 1 15 -4 5 -6 -16 -23 -30 -35 -30 -5 0 -8 21 -8 47 l0 47 31 -30 c75 -70
128 -164 171 -298 39 -125 42 -132 105 -198 69 -73 101 -135 110 -210 3 -27
10 -48 16 -48 17 0 -1 118 -28 173 -13 29 -49 80 -79 115 -51 58 -60 77 -80
165 l-7 28 43 -22 c24 -12 57 -31 73 -42 17 -11 -12 21 -64 71 -52 51 -92 94
-90 96 4 4 36 -4 139 -36 19 -6 41 -16 49 -22 29 -23 60 -86 72 -146 7 -35 21
-73 33 -86 23 -26 76 -43 76 -25 0 6 -6 11 -14 11 -32 0 -64 45 -81 115 -9 39
-23 81 -32 94 -17 27 -14 26 62 -28 79 -55 79 -55 68 -117 -5 -30 -6 -54 -2
-54 23 0 22 161 -1 198 -10 15 -10 15 -6 -3 2 -11 7 -30 11 -43 5 -18 -11 -9
-74 42 -98 79 -138 101 -216 115 -32 6 -60 11 -61 11 -8 0 -81 77 -128 137
-31 39 -63 74 -71 77 -16 6 -19 35 -9 74 8 26 22 28 41 5 13 -16 13 -16 3 5
-6 12 -18 22 -26 22 -12 0 -14 10 -12 47 l3 48 49 7 c57 8 108 -9 125 -40 6
-12 11 -55 11 -96 0 -73 1 -78 35 -114 41 -44 45 -40 10 8 -22 30 -25 43 -24
116 1 46 -2 87 -6 93 -11 18 35 13 81 -9 50 -25 69 -50 79 -108 4 -23 15 -52
26 -64 l19 -23 -15 30 c-21 42 -20 76 2 68 14 -5 12 0 -7 28 -55 81 -93 106
-189 129 -71 17 -51 26 69 33 74 4 99 1 117 -10 13 -9 26 -13 29 -10 3 3 -4 8
-15 12 -27 8 -26 17 2 42 28 26 122 41 113 18 -10 -27 3 -16 35 32 29 41 33
44 41 27 6 -14 7 -12 3 9 -3 15 -1 27 3 27 13 0 42 108 54 203 32 238 23 621
-15 695 -22 40 -11 95 19 100 10 2 24 9 29 14 7 7 -2 8 -28 4 -37 -7 -38 -7
-31 21 4 15 11 32 15 37 5 6 9 16 9 24 0 7 -12 -1 -26 -18 -15 -17 -33 -29
-40 -26 -8 3 -20 -6 -28 -22 -9 -15 -15 -20 -16 -12 0 8 11 29 25 45 16 19 23
23 18 11 -5 -14 -3 -17 6 -12 7 5 10 15 6 23 -3 9 2 27 10 40 9 13 15 29 13
34 -3 8 -78 -89 -107 -139 -6 -10 -18 -7 -54 10 -26 13 -47 27 -47 32 0 5 3 7
6 3 6 -5 54 16 94 43 8 6 27 14 42 20 26 9 27 13 23 55 -2 25 -8 53 -13 63
-10 19 -5 42 9 42 6 0 7 -5 3 -12 -4 -6 -3 -8 4 -4 13 8 -2 66 -20 78 -8 5 -1
7 17 4 21 -4 47 -24 87 -68 31 -34 53 -65 49 -68 -13 -8 -61 -82 -61 -93 0 -6
13 10 30 36 16 26 36 47 43 47 16 0 147 -171 178 -231 11 -22 17 -45 13 -51
-4 -7 -3 -8 4 -4 7 4 19 -20 34 -66 20 -63 23 -94 23 -228 0 -85 6 -200 13
-255 7 -55 12 -131 10 -170 l-3 -70 -27 80 c-31 92 -40 136 -68 336 -19 138
-83 402 -108 444 -23 40 -13 -31 28 -187 21 -84 46 -207 55 -273 24 -186 44
-272 85 -380 21 -55 41 -122 45 -150 3 -27 13 -76 21 -108 8 -31 17 -76 20
-100 3 -23 12 -47 20 -53 8 -6 14 -16 14 -21 0 -6 23 -46 51 -89 38 -57 58
-103 76 -169 43 -158 105 -269 276 -500 68 -91 128 -209 157 -306 11 -37 27
-72 35 -79 8 -7 15 -25 15 -40 0 -33 23 -92 43 -109 9 -6 26 -9 39 -6 l23 6
-6 -83 c-6 -89 -16 -136 -31 -155 -18 -22 14 -338 37 -369 11 -16 13 -16 25 7
12 21 11 22 -2 12 -8 -7 -18 -10 -21 -6 -12 11 -8 23 8 23 12 0 15 21 16 128
1 70 0 172 -1 227 l-2 100 21 -27 c17 -21 21 -40 21 -96 0 -41 7 -91 19 -123
10 -30 21 -72 25 -94 10 -54 52 -189 71 -225 17 -34 30 -38 39 -14 5 14 4 15
-8 5 -15 -13 -20 -5 -30 49 -2 14 -8 36 -14 50 -17 46 -23 80 -13 80 15 0 31
-35 35 -73 4 -33 22 -87 30 -87 2 0 2 8 0 18 -2 9 -13 64 -24 122 -12 58 -25
119 -31 136 -5 17 -10 48 -11 70 -1 21 -9 63 -19 92 l-18 52 28 0 c26 0 29 -4
44 -67 15 -68 115 -337 157 -425 26 -56 50 -64 50 -15 -1 56 -99 379 -140 458
l-30 57 22 5 c12 4 23 5 24 4 1 -1 14 -27 29 -57 15 -30 32 -58 38 -62 6 -3
45 -73 86 -155 49 -95 82 -149 94 -151 9 -2 17 1 17 7 0 6 -6 10 -12 8 -7 -1
-12 4 -11 10 2 7 -1 13 -6 13 -5 0 -11 7 -15 15 -3 9 0 15 9 15 7 0 17 -9 20
-21 4 -11 9 -18 12 -16 8 8 -35 125 -77 211 -22 46 -40 87 -40 93 0 21 -61
104 -72 97 -6 -4 -8 -3 -5 3 4 6 -2 22 -12 35 -22 27 -75 131 -86 166 -5 18
-2 22 14 22 30 0 73 -19 100 -43 20 -18 23 -19 18 -4 -5 14 -1 17 22 17 20 0
43 -13 75 -43 49 -47 60 -73 26 -62 -28 9 -25 -9 5 -29 19 -13 23 -13 19 -2
-3 8 0 17 6 21 12 7 84 -54 75 -64 -3 -2 -16 6 -29 18 -13 12 -26 18 -29 14
-9 -15 53 -47 65 -35 8 8 -20 43 -91 119 -102 107 -186 166 -313 220 -30 13
-38 23 -47 57 -6 23 -22 60 -37 81 -31 46 -121 224 -158 313 -15 34 -44 133
-67 220 -63 247 -100 337 -190 466 -38 54 -49 78 -49 108 0 29 -8 47 -35 76
-32 36 -36 49 -59 178 -48 275 -60 307 -180 488 -36 55 -69 116 -72 135 -4 20
-19 91 -35 158 -16 67 -29 125 -29 129 0 20 56 -49 86 -106 19 -36 32 -54 28
-40 -17 66 -45 117 -82 155 -38 37 -43 47 -51 111 -4 38 -6 105 -4 149 4 72 3
83 -19 115 -17 25 -34 37 -58 41 -19 4 -50 13 -69 21 -32 15 -33 16 -14 27 32
17 39 60 12 85 l-21 21 15 -25 c21 -33 4 -71 -38 -83 -17 -5 -45 -15 -63 -23
-29 -12 -34 -12 -51 5 -22 22 -18 31 15 31 12 0 24 6 27 14 4 10 17 11 51 6
26 -4 49 -3 52 1 7 12 -50 39 -81 39 -23 0 -24 2 -13 20 7 11 22 20 33 20 12
1 3 7 -20 15 -50 18 -53 18 -29 0 18 -14 18 -16 2 -28 -13 -10 -44 -13 -120
-10 -71 3 -117 0 -148 -10 -40 -12 -51 -12 -85 1 -22 7 -55 14 -74 13 -18 0
-42 4 -52 10 -11 5 -19 6 -19 1 0 -6 -11 -12 -24 -14 -19 -4 -37 7 -80 48 -54
50 -68 74 -45 74 6 0 4 7 -4 15 -21 20 -31 128 -24 254 6 100 7 105 39 140 20
21 22 27 7 13 l-26 -22 -2 48 c0 26 -5 62 -10 80 -7 24 -5 51 10 105 19 69 47
123 35 67 -10 -48 -14 -120 -6 -120 5 0 14 32 21 70 7 39 18 78 24 87 7 10 5
-12 -6 -53 -10 -38 -18 -96 -18 -129 -1 -42 -7 -70 -22 -95 l-21 -35 22 21
c17 17 24 42 35 130 14 117 32 172 78 244 25 40 27 51 22 100 -4 37 -1 74 10
115 22 80 22 275 0 352 -9 30 -18 53 -20 51 -2 -2 2 -25 10 -51 14 -48 21
-266 7 -253 -3 4 -5 24 -4 44 3 36 2 37 -15 16 -10 -11 -25 -31 -34 -45 -21
-30 -39 -17 -19 14 33 53 40 76 40 133 0 102 -23 159 -93 229 -46 45 -79 68
-128 87 -70 28 -176 44 -196 31z m150 -42 c6 -6 19 -11 29 -11 10 0 18 -4 18
-10 0 -5 9 -10 21 -10 11 0 18 -4 15 -8 -2 -4 4 -14 16 -21 11 -7 17 -8 13 -2
-3 6 -3 11 2 11 11 0 36 -58 29 -69 -3 -5 5 -11 19 -13 21 -4 23 -3 14 9 -7 7
-10 16 -7 18 7 8 31 -24 34 -43 13 -101 8 -142 -20 -142 -20 0 -26 22 -11 40
7 8 16 26 19 40 6 21 5 22 -4 8 -6 -10 -18 -18 -26 -18 -8 0 -13 -4 -10 -9 3
-4 -3 -16 -13 -25 -21 -19 -23 -17 -49 34 l-12 25 5 -27 c3 -15 0 -30 -5 -33
-6 -4 -8 -10 -5 -14 6 -11 -46 -34 -55 -24 -4 4 -12 24 -19 42 -15 45 2 64 59
64 60 0 75 25 46 77 -11 22 -32 45 -46 52 -14 7 -32 18 -41 25 -11 9 -40 12
-88 10 -76 -3 -97 7 -65 30 21 17 119 12 137 -6z m-49 -67 c13 -20 22 -44 19
-55 -7 -25 -22 -24 -32 3 -7 20 -8 19 -14 -10 -4 -19 -13 -32 -22 -32 -13 0
-13 -3 -3 -20 11 -17 10 -22 -2 -30 -26 -16 -40 -11 -40 15 0 14 6 25 13 25 6
0 4 5 -6 11 -17 10 -17 12 3 44 l20 33 -22 5 c-20 6 -21 7 -5 24 28 32 63 27
91 -13z m74 12 c52 -23 92 -85 67 -106 -8 -7 -22 -10 -30 -6 -17 6 -21 26 -5
26 19 0 10 29 -16 49 -17 13 -35 19 -49 15 -15 -4 -24 0 -29 11 -6 18 1 38 12
33 4 -2 26 -12 50 -22z m10 -64 c2 -12 0 -22 -5 -21 -20 3 -27 -2 -13 -11 13
-9 13 -12 -3 -25 -11 -7 -25 -11 -33 -8 -18 7 -18 -20 0 -72 19 -53 6 -77 -37
-73 -31 3 -32 4 -30 48 3 46 -1 46 -11 -2 -4 -19 -13 -28 -26 -28 -16 0 -20 7
-20 34 0 39 5 45 48 48 25 2 29 5 21 19 -5 10 -9 25 -9 34 0 16 5 19 51 29 22
5 25 10 21 32 -4 22 -2 25 19 22 16 -2 25 -11 27 -26z m196 -68 c3 -8 2 -12
-4 -9 -6 3 -10 10 -10 16 0 14 7 11 14 -7z m16 -55 c0 -6 -4 -7 -10 -4 -5 3
-10 11 -10 16 0 6 5 7 10 4 6 -3 10 -11 10 -16z m-2 -47 c0 -9 1 -21 3 -27 2
-5 0 -27 -4 -48 -7 -33 -10 -36 -23 -22 -8 8 -13 19 -10 24 4 5 0 12 -6 14 -9
4 -5 12 11 25 15 12 19 21 12 23 -7 3 -9 12 -6 22 8 21 24 13 23 -11z m-91
-17 c24 -21 26 -26 13 -35 -19 -13 -30 -13 -30 0 0 6 -5 10 -11 10 -5 0 -7 -4
-4 -10 3 -5 2 -10 -4 -10 -5 0 -13 5 -17 11 -4 8 -9 7 -15 -2 -7 -11 -9 -11
-9 -1 0 7 -4 10 -10 7 -17 -11 -11 10 10 33 27 28 42 28 77 -3z m-282 -35 c3
-5 1 -10 -4 -10 -6 0 -11 5 -11 10 0 6 2 10 4 10 3 0 8 -4 11 -10z m178 -10
c10 -15 24 -20 54 -18 47 1 103 -18 103 -37 0 -21 -34 -45 -58 -38 -12 3 -22
1 -22 -5 0 -5 -26 -10 -57 -10 -53 -1 -56 0 -39 14 18 13 18 14 2 14 -13 0
-16 5 -12 17 6 16 6 16 -12 0 -10 -9 -25 -17 -33 -17 -16 0 -39 -19 -39 -32 0
-4 15 1 33 12 37 23 54 26 38 7 -6 -8 -9 -16 -6 -18 2 -3 -5 -6 -17 -6 -12 -1
-25 -8 -29 -15 -5 -7 -13 -14 -19 -14 -23 -3 -24 -5 -12 -13 11 -6 11 -10 0
-18 -9 -7 -21 -6 -38 3 -14 8 -19 14 -11 14 11 0 11 3 1 15 -10 12 -7 19 17
41 l28 26 -27 -16 c-36 -21 -36 -22 -36 22 0 46 30 82 69 82 15 0 31 -5 35
-11 5 -8 10 -6 16 5 13 22 54 20 71 -4z m-274 -87 c9 -20 9 -33 0 -55 -15 -36
-22 -35 -36 2 -6 17 -8 28 -3 25 4 -3 10 5 13 17 4 13 1 26 -6 30 -8 5 -7 8 4
8 9 0 21 -12 28 -27z m-114 -18 c29 -13 29 -13 6 -14 -13 -1 -22 -4 -18 -7 14
-14 -26 -35 -70 -38 -27 -1 -56 -6 -65 -10 -13 -6 -18 -4 -18 9 0 9 -4 13 -10
10 -12 -7 -13 5 -2 22 11 17 80 42 117 42 17 0 44 -6 60 -14z m550 -42 c4 -21
11 -51 16 -67 5 -16 9 -48 9 -72 0 -38 3 -44 25 -50 26 -7 36 -44 12 -44 -8 0
-22 -9 -32 -20 -14 -15 -15 -23 -6 -33 8 -11 7 -18 -8 -31 -18 -17 -19 -17
-24 1 -4 16 -6 15 -12 -4 -4 -13 -10 -23 -14 -24 -53 -9 -71 -6 -71 14 0 21 0
21 -16 -2 l-16 -23 -50 49 c-48 47 -77 92 -93 143 -7 24 -7 24 11 9 25 -22 85
-52 91 -46 2 3 -5 8 -16 12 -12 3 -19 11 -16 16 4 5 22 2 43 -6 20 -9 42 -13
49 -11 17 7 17 29 1 23 -7 -2 -25 2 -40 10 l-28 13 22 25 c20 23 85 55 113 55
7 0 16 -10 18 -22 4 -19 5 -18 6 5 1 32 -45 86 -76 88 -17 1 58 26 84 28 7 1
15 -16 18 -36z m36 4 c-10 -9 -11 -8 -5 6 3 10 9 15 12 12 3 -3 0 -11 -7 -18z
m46 -9 c-3 -8 -6 -5 -6 6 -1 11 2 17 5 13 3 -3 4 -12 1 -19z m-665 -70 c-2
-20 2 -27 23 -32 14 -4 31 -4 37 0 7 4 8 3 4 -4 -7 -11 -106 -9 -125 2 -15 10
0 47 23 56 31 13 41 6 38 -22z m-293 -4 c12 -15 21 -41 21 -60 0 -18 7 -66 15
-106 9 -40 13 -84 10 -96 -4 -15 -2 -21 5 -17 5 3 10 1 10 -4 0 -15 -23 -14
-38 1 -7 7 -12 22 -12 34 0 13 -5 26 -11 30 -19 11 -49 87 -49 123 0 19 3 31
7 28 3 -4 12 1 19 10 10 15 11 6 7 -47 -3 -46 -1 -70 9 -83 12 -16 14 -9 15
61 1 69 -2 82 -23 108 -20 24 -25 27 -34 14 -8 -13 -10 -13 -10 1 0 37 31 39
59 3z m584 -4 c-3 -11 -7 -20 -9 -20 -2 0 -4 9 -4 20 0 11 4 20 9 20 5 0 7 -9
4 -20z m-346 -79 c11 -5 24 -7 28 -3 5 4 5 1 1 -5 -5 -8 -1 -14 11 -14 10 -1
0 -5 -22 -9 l-40 -7 45 -2 c28 0 61 7 83 18 42 21 43 20 21 -14 -12 -19 -26
-25 -53 -26 -27 0 -31 -2 -17 -8 18 -7 18 -8 2 -14 -55 -22 -134 4 -156 51
-13 30 -5 40 20 24 27 -17 34 -15 16 4 -9 8 -16 19 -16 24 0 9 45 -1 77 -19z
m76 -8 c-7 -2 -19 -2 -25 0 -7 3 -2 5 12 5 14 0 19 -2 13 -5z m250 -23 c3 -11
1 -18 -4 -14 -5 3 -9 12 -9 20 0 20 7 17 13 -6z m-173 -60 c0 -56 -14 -67 -24
-19 -5 27 6 69 19 69 3 0 5 -22 5 -50z m-40 -40 c-1 -12 -4 -11 -15 4 -8 10
-12 23 -8 29 7 11 23 -12 23 -33z m-69 -21 c99 -59 127 -90 94 -103 -9 -3 -15
0 -15 10 0 8 -4 13 -9 10 -5 -3 -11 1 -15 9 -3 8 -11 15 -19 15 -7 0 -47 25
-88 56 -59 44 -68 54 -44 49 17 -4 60 -25 96 -46z m-56 -14 c71 -50 88 -75 51
-75 -26 0 -50 22 -38 34 4 4 0 6 -8 4 -8 -1 -14 3 -15 10 0 7 -16 26 -35 42
-54 45 -25 35 45 -15z m488 -73 c9 -44 -21 -159 -42 -165 -17 -4 -18 3 -14 97
5 127 8 134 32 112 10 -10 21 -29 24 -44z m-421 -77 c14 -27 -78 62 -104 100
-13 18 1 9 36 -25 31 -30 62 -64 68 -75z m445 93 c-3 -8 -6 -5 -6 6 -1 11 2
17 5 13 3 -3 4 -12 1 -19z m53 11 c0 -28 -23 -98 -31 -93 -12 7 -11 61 1 85
11 20 30 26 30 8z m-554 -171 c-12 -6 -24 -3 -43 11 -14 12 -20 21 -12 21 10
0 10 3 1 12 -29 29 -8 27 29 -3 34 -27 38 -34 25 -41z m508 1 c3 -17 6 -57 6
-89 0 -52 -3 -60 -37 -93 -20 -20 -31 -37 -24 -37 7 0 9 -4 6 -10 -13 -20 -21
-9 -24 33 -2 41 47 227 60 227 4 0 9 -14 13 -31z m-545 -24 c17 -19 28 -35 24
-35 -4 0 -2 -5 5 -12 7 -7 12 -23 12 -36 0 -23 0 -23 -32 7 -18 17 -36 31 -40
31 -4 0 -15 11 -24 25 -13 20 -14 28 -4 40 18 21 23 19 59 -20z m474 -27 c-6
-7 -13 -22 -16 -33 -4 -18 -5 -18 -6 3 0 13 5 29 12 36 15 17 24 11 10 -6z
m-288 -26 c-3 -3 -11 0 -18 7 -9 10 -8 11 6 5 10 -3 15 -9 12 -12z m-50 -59
c4 -21 9 -46 12 -57 3 -12 1 -16 -6 -12 -6 4 -11 13 -11 20 0 20 -47 60 -52
44 -3 -7 -7 -3 -10 10 -4 12 -3 20 0 18 4 -2 16 0 27 5 32 12 34 11 40 -28z
m63 24 c14 0 17 -17 2 -17 -5 0 -10 -7 -10 -15 0 -8 -9 -15 -20 -15 -16 0 -20
7 -20 31 0 26 3 30 18 24 9 -4 23 -8 30 -8z m77 -71 c6 -27 4 -37 -3 -32 -6 3
-16 -2 -22 -11 -11 -17 -11 -17 -6 1 5 13 2 17 -9 12 -10 -4 -20 3 -27 20 -11
24 -9 29 16 51 33 28 39 23 51 -41z m260 -38 c-8 -59 -27 -128 -35 -123 -4 2
-10 23 -14 46 -6 35 -3 46 16 67 13 14 16 22 8 18 -8 -4 -6 0 4 8 26 21 25 21
21 -16z m-265 -48 c-7 -4 -22 -5 -34 -2 -19 5 -18 7 9 18 30 12 50 0 25 -16z
m105 -30 c2 -4 -6 -17 -19 -29 -28 -26 -66 -21 -61 7 2 9 4 20 4 24 1 9 70 8
76 -2z m65 -5 c0 -8 -7 -15 -15 -15 -8 0 -15 7 -15 15 0 8 7 15 15 15 8 0 15
-7 15 -15z m-452 -53 c6 -19 7 -30 2 -27 -6 3 -7 -1 -4 -9 3 -9 10 -16 14 -16
4 0 5 -12 2 -26 -3 -17 -1 -25 5 -21 15 9 21 -33 17 -111 -4 -62 -3 -65 9 -38
l14 28 6 -38 c13 -77 14 -76 -50 -68 -32 3 -59 7 -60 8 -1 1 4 24 13 51 9 31
13 71 9 105 -15 172 -16 225 -2 210 8 -8 19 -30 25 -48z m442 6 c0 -16 -3 -19
-11 -11 -6 6 -8 16 -5 22 11 17 16 13 16 -11z m-44 -6 c-2 -4 -1 -14 4 -22 12
-20 -29 -60 -62 -60 -46 0 -58 10 -58 47 0 35 0 36 38 31 20 -3 46 -2 57 3 27
10 27 10 21 1z m168 -120 c20 -115 20 -111 -4 -105 -22 6 -28 43 -7 43 8 0 9
3 1 8 -16 10 -26 76 -18 117 3 20 8 35 9 33 2 -2 10 -45 19 -96z m-97 57 c1
-14 0 -17 -3 -6 -3 9 -12 17 -20 17 -8 0 -12 5 -9 11 11 17 30 4 32 -22z
m-267 0 c0 8 2 12 5 10 2 -3 0 -18 -4 -35 -5 -16 -10 -21 -10 -12 -1 9 -4 25
-7 35 -5 15 -4 15 5 3 9 -12 11 -13 11 -1z m37 -41 c-3 -7 -5 -2 -5 12 0 14 2
19 5 13 2 -7 2 -19 0 -25z m213 17 c10 -12 10 -15 -4 -15 -9 0 -16 7 -16 15 0
8 2 15 4 15 2 0 9 -7 16 -15z m-541 -17 c-11 -21 -11 -22 4 -9 32 26 17 -5
-19 -40 l-36 -34 26 53 c15 28 29 52 32 52 2 0 -1 -10 -7 -22z m498 -18 c4
-25 -44 -62 -75 -58 -21 2 -26 9 -29 40 l-3 37 40 -1 c23 0 44 2 47 6 9 8 16
-1 20 -24z m39 -27 c-10 -10 -19 5 -10 18 6 11 8 11 12 0 2 -7 1 -15 -2 -18z
m-518 -29 c-1 -5 -9 -9 -16 -10 -10 -2 -11 1 -1 12 12 14 24 13 17 -2z m564
-61 c-16 -11 -16 -12 1 -13 30 0 21 -47 -13 -65 -34 -17 -34 -17 -19 22 6 15
12 35 13 43 1 8 6 33 11 55 l9 40 7 -35 c6 -26 3 -37 -9 -47z m-59 47 c-3 -11
-7 -20 -9 -20 -2 0 -4 9 -4 20 0 11 4 20 9 20 5 0 7 -9 4 -20z m-81 -15 c2 1
15 5 29 8 22 6 28 3 32 -14 8 -29 -8 -66 -32 -74 -74 -23 -88 -16 -87 44 1 47
1 48 28 40 14 -4 28 -6 30 -4z m-458 -3 c3 -5 -1 -9 -9 -9 -8 0 -12 4 -9 9 3
4 7 8 9 8 2 0 6 -4 9 -8z m684 -59 c-4 -36 -38 -45 -38 -10 0 27 7 37 27 37
10 0 13 -9 11 -27z m74 -12 c19 -17 29 -33 24 -38 -5 -4 -11 -2 -13 5 -3 6 -9
12 -14 12 -16 0 -4 -25 15 -30 15 -4 8 -12 -33 -38 -29 -17 -54 -32 -55 -32
-12 0 26 75 40 81 17 7 17 8 2 8 -13 1 -18 9 -18 31 0 38 11 38 52 1z m-1473
-7 c-11 -13 -7 -13 30 2 65 26 59 10 -9 -27 -34 -18 -91 -62 -127 -98 -64 -64
-70 -66 -31 -9 22 32 23 45 3 28 -31 -26 -24 -2 10 35 19 22 35 43 35 48 0 4
5 5 10 2 6 -3 10 -2 10 3 0 5 15 14 33 20 46 14 51 14 36 -4z m129 -11 c-17
-4 -26 -23 -10 -23 4 0 31 7 60 14 28 8 52 12 52 10 0 -2 -18 -13 -41 -24 -50
-26 -45 -37 6 -16 54 23 65 19 30 -10 l-30 -25 37 16 c46 18 70 20 47 2 -8 -7
-31 -25 -50 -40 l-34 -28 33 16 c47 23 52 10 11 -25 -34 -30 -34 -30 -6 -24
15 3 27 2 27 -2 0 -18 -168 -175 -175 -164 -4 6 -1 17 5 25 18 21 1 19 -19 -3
-9 -9 -23 -23 -32 -29 -13 -11 -16 -10 -16 5 0 9 5 24 10 32 6 8 -6 -1 -26
-20 -21 -19 -54 -59 -75 -88 -54 -79 -51 -46 3 38 26 39 45 74 42 76 -5 6 -97
-103 -97 -115 0 -5 -9 -18 -20 -31 -26 -30 -26 -11 0 43 20 40 11 34 -25 -18
-13 -19 -13 -19 -8 5 3 14 14 36 23 50 25 37 32 50 27 50 -3 0 -19 -21 -36
-47 -23 -35 -31 -41 -31 -25 0 11 5 24 10 27 6 4 8 10 5 15 -3 5 0 20 7 35 8
19 14 22 21 13 6 -9 7 -8 3 4 -3 10 1 33 9 52 8 19 10 36 5 38 -13 5 53 92 94
123 39 29 142 75 166 74 11 -1 10 -3 -2 -6z m1184 -81 c-5 -15 -15 -46 -23
-70 -20 -69 -32 -62 -27 18 3 62 7 74 28 90 22 16 25 17 28 4 2 -9 -1 -28 -6
-42z m69 15 c-9 -37 -30 -81 -37 -74 -9 9 20 107 32 107 8 0 10 -10 5 -33z
m242 26 c-7 -2 -21 -2 -30 0 -10 3 -4 5 12 5 17 0 24 -2 18 -5z m425 -12 c2
-6 8 -9 13 -5 5 3 9 1 9 -5 0 -16 -60 -43 -81 -38 -28 7 -23 2 17 -22 34 -20
36 -24 29 -59 -8 -45 -16 -55 -38 -46 -22 8 -22 24 1 24 17 1 -60 42 -87 46
-8 2 -20 9 -28 16 -21 22 6 50 58 58 l44 7 -37 2 c-26 1 -45 -6 -65 -23 l-27
-24 -39 31 -38 31 33 13 c42 16 230 11 236 -6z m-1588 -79 c-58 -32 -115 -64
-127 -72 -38 -25 -26 -32 17 -10 55 28 64 25 12 -5 -24 -14 -48 -22 -53 -19
-5 3 -19 -5 -32 -18 -67 -67 -118 -111 -108 -92 27 53 203 191 306 240 108 51
101 40 -15 -24z m1183 36 c4 -10 7 -10 15 0 7 11 18 11 49 3 60 -16 73 -37 20
-32 -23 2 -45 9 -49 15 -6 8 -11 7 -17 -3 -8 -13 -27 -13 -101 3 -8 2 -19 1
-25 -3 -18 -10 -50 -12 -40 -2 27 26 140 40 148 19z m-149 -62 c-39 -12 -77
-27 -85 -31 -9 -5 -8 -1 3 11 9 11 27 20 39 21 12 1 27 7 32 12 6 6 27 11 47
11 30 -1 26 -4 -36 -24z m725 -1 l24 -12 -32 -19 c-33 -19 -91 -97 -91 -121 0
-21 -14 -15 -49 21 -31 32 -32 36 -22 69 26 77 92 102 170 62z m81 -25 c27
-14 42 -80 35 -148 -4 -31 -2 -88 4 -127 5 -38 9 -70 8 -72 -2 -1 -29 7 -61
19 -46 17 -63 30 -83 62 -14 23 -37 54 -50 70 -20 24 -24 37 -19 64 8 49 45
99 91 122 46 23 50 24 75 10z m-2490 -40 c-6 -11 -13 -20 -16 -20 -2 0 0 9 6
20 6 11 13 20 16 20 2 0 0 -9 -6 -20z m1810 5 c-20 -24 -102 -75 -122 -75 -10
0 -18 6 -18 14 0 8 -5 18 -10 21 -7 4 -9 -2 -4 -19 4 -18 2 -26 -7 -26 -7 0
-10 -3 -7 -6 3 -3 25 0 49 6 37 10 43 9 52 -5 6 -12 12 -14 16 -6 5 7 20 9 40
5 21 -4 28 -10 20 -14 -7 -5 -19 -6 -28 -3 -11 4 -9 1 4 -10 19 -14 18 -15
-19 -31 -21 -9 -59 -17 -85 -18 -36 -1 -39 -2 -13 -5 17 -2 32 -8 32 -12 0 -4
26 5 58 20 64 32 97 36 106 13 3 -8 2 -12 -3 -9 -5 3 -12 -4 -16 -14 -12 -38
-63 -71 -110 -71 -80 0 -102 9 -103 41 0 16 -10 42 -22 58 -11 16 -19 35 -18
42 2 7 -3 14 -9 15 -7 1 -17 2 -23 3 -55 7 150 99 224 100 24 1 27 -1 16 -14z
m154 -22 c23 -36 47 -100 29 -78 -13 16 -31 16 -37 -1 -5 -12 -2 -15 9 -10 9
3 13 2 10 -4 -3 -6 -11 -10 -17 -10 -7 0 -23 -10 -36 -22 l-24 -23 7 25 c4 14
11 29 16 35 14 14 11 31 -3 17 -24 -24 -28 -11 -6 18 19 26 21 35 11 60 -17
45 11 40 41 -7z m-1565 -30 c-18 -21 -37 -42 -41 -47 -5 -6 -8 -7 -8 -3 0 9
70 87 78 87 3 0 -10 -17 -29 -37z m-444 -46 c-31 -71 -40 -74 -13 -5 22 60 28
71 34 65 2 -2 -7 -29 -21 -60z m1921 46 c7 -10 14 -21 14 -25 0 -12 -48 -10
-92 4 -39 11 -39 12 -16 24 33 19 79 17 94 -3z m184 -105 c24 -39 26 -93 5
-101 -18 -8 -21 -3 -29 55 -4 26 -12 50 -18 54 -7 4 -5 9 3 15 19 12 17 13 39
-23z m-580 -2 c0 -2 -16 -20 -35 -40 -19 -21 -35 -42 -35 -47 0 -5 -5 -9 -10
-9 -14 0 5 38 38 73 22 23 42 35 42 23z m410 -47 c-12 -16 -24 -28 -27 -25 -7
6 27 56 39 56 5 0 0 -14 -12 -31z m59 -1 c-12 -22 -11 -22 6 -8 17 14 18 13 8
-4 -6 -10 -23 -20 -38 -22 l-28 -3 29 30 c33 35 39 36 23 7z m76 -28 c2 -23 2
-22 -19 -14 -16 6 -22 35 -9 47 10 10 26 -9 28 -33z m-487 -82 c-2 -30 -8 -43
-18 -43 -19 0 -25 37 -10 64 18 35 31 24 28 -21z m460 27 c10 -10 -15 -26 -53
-35 -28 -6 -46 -4 -78 11 -23 10 -37 19 -32 20 26 2 47 8 53 14 8 8 101 -1
110 -10z m547 -65 c1 0 1 -8 2 -17 1 -10 16 -72 33 -137 29 -113 35 -164 11
-96 -6 18 -42 88 -81 156 -38 68 -70 126 -70 129 0 3 24 -4 53 -15 28 -11 52
-20 52 -20z m-724 -21 c36 -9 77 -44 66 -56 -11 -11 -139 26 -153 44 -28 37
-16 38 87 12z m309 -4 c0 -8 -7 -15 -16 -15 -14 0 -14 3 -4 15 7 8 14 15 16
15 2 0 4 -7 4 -15z m-1940 -39 c-12 -20 -26 -36 -31 -36 -6 0 -7 -5 -3 -12 4
-7 3 -8 -4 -4 -14 8 -2 38 31 73 29 32 33 20 7 -21z m1760 4 c16 -14 18 -20 9
-20 -16 0 -39 19 -39 32 0 12 5 10 30 -12z m-1819 -7 c-5 -10 -16 -27 -25 -38
-14 -18 -15 -18 -16 -2 0 9 -5 17 -11 17 -5 0 -7 5 -4 10 4 6 11 8 16 5 5 -4
9 -2 9 4 0 5 8 12 18 14 9 3 18 5 20 6 1 0 -2 -7 -7 -16z m1999 -28 c0 -16 -6
-25 -16 -25 -11 0 -14 6 -9 20 4 12 2 20 -5 20 -6 0 -8 -5 -4 -11 4 -7 1 -10
-6 -7 -28 9 -22 28 9 28 26 0 31 -4 31 -25z m-1619 -9 c13 -2 62 -27 109 -55
47 -28 101 -57 120 -66 19 -9 66 -35 104 -57 63 -38 66 -42 45 -50 -15 -6 -25
-5 -31 4 -6 10 -8 10 -8 1 0 -9 -7 -10 -26 -3 -37 15 -40 12 -13 -12 18 -16
20 -20 6 -15 -11 4 -29 10 -41 13 -14 3 -26 17 -32 37 -8 29 -13 32 -49 32
-22 0 -43 5 -47 10 -5 6 -14 1 -23 -13 l-16 -22 -40 50 c-40 50 -48 67 -27 54
6 -4 8 -3 4 4 -3 5 -1 12 6 14 8 3 6 7 -5 11 -9 3 -16 3 -16 -1 4 -25 -6 -22
-41 13 -22 21 -40 44 -40 50 0 6 3 7 8 0 4 -5 21 -21 37 -35 l30 -25 -21 25
c-27 32 -40 55 -27 47 5 -3 20 -8 34 -11z m1366 8 c-3 -3 -12 -4 -19 -1 -8 3
-5 6 6 6 11 1 17 -2 13 -5z m-522 -24 c-3 -5 -11 -10 -16 -10 -6 0 -7 5 -4 10
3 6 11 10 16 10 6 0 7 -4 4 -10z m480 -31 c7 -7 1 -8 -20 -3 -46 11 -67 26
-25 19 19 -3 39 -10 45 -16z m272 -3 c4 -3 4 -9 1 -12 -9 -8 -88 17 -83 26 5
8 72 -4 82 -14z m-1550 -114 c20 -23 34 -45 31 -47 -7 -7 -122 124 -137 155
-12 25 29 -17 106 -108z m1609 60 c9 -48 -2 -124 -24 -167 l-18 -36 -19 38
c-11 21 -30 50 -43 64 -18 20 -24 41 -26 82 l-3 55 27 -8 c47 -13 70 -30 70
-50 0 -27 -14 -25 -30 4 -7 13 -20 26 -29 29 -13 3 -16 -4 -16 -35 0 -39 0
-40 33 -35 26 5 32 2 32 -12 0 -9 -4 -22 -10 -29 -5 -7 -2 -5 8 3 13 13 17 31
16 91 0 64 2 73 13 58 7 -10 16 -33 19 -52z m-182 36 c28 -25 46 -78 26 -78
-6 0 -21 5 -33 12 -12 6 -37 12 -56 14 -18 1 -39 8 -45 14 -8 8 -4 9 17 1 35
-13 40 -14 32 -2 -3 5 0 11 7 14 7 2 5 3 -5 1 -21 -3 -77 24 -77 37 0 5 24 9
54 9 43 0 60 -5 80 -22z m-1853 -58 c-10 -22 -21 -43 -24 -47 -4 -3 -7 -11 -7
-16 0 -5 10 3 22 19 35 47 39 50 35 29 -2 -11 -7 -27 -10 -35 -28 -68 -29 -89
-1 -52 9 11 6 -6 -6 -48 -14 -49 -16 -60 -5 -46 13 17 15 17 15 4 0 -9 -4 -20
-10 -23 -5 -3 -10 -14 -10 -23 0 -9 -8 -26 -16 -37 -15 -19 -15 -19 -9 10 8
40 -35 -44 -71 -137 -14 -38 -30 -70 -35 -74 -8 -5 -14 18 -10 40 1 5 -5 4
-13 -3 -14 -12 -14 -10 -5 18 17 48 6 47 -19 -2 -18 -36 -22 -38 -22 -17 1 38
17 104 56 225 38 116 60 164 94 205 l20 25 -16 -39 c-23 -56 -12 -53 25 9 19
30 35 55 37 55 2 0 -5 -18 -15 -40z m-114 6 c-2 -6 -7 -22 -11 -36 -7 -23 -6
-23 13 5 31 45 26 23 -29 -115 -27 -70 -63 -182 -80 -250 -16 -68 -32 -125
-35 -128 -3 -3 -5 16 -5 41 0 50 -13 62 -25 25 -6 -20 -8 -20 -12 -5 -2 9 -9
17 -14 17 -5 0 -6 26 -2 60 6 66 -1 78 -17 28 l-10 -33 4 40 c2 22 11 56 19
75 l15 35 -5 -40 c-4 -31 6 -16 40 66 24 59 54 120 66 137 11 17 21 32 21 35
0 2 12 18 28 35 26 28 48 33 39 8z m1774 -33 c26 -59 59 -188 59 -228 0 -38
-28 -94 -57 -113 -14 -8 -23 -10 -23 -4 0 6 8 13 18 16 24 8 42 61 42 122 0
48 -22 130 -54 206 -17 40 -19 48 -11 48 3 0 15 -21 26 -47z m144 -14 c33 -15
41 -24 43 -49 1 -16 1 -30 0 -30 -2 1 -27 9 -57 19 -54 19 -63 27 -76 69 -6
21 -4 22 22 16 15 -3 46 -15 68 -25z m-1215 -17 c0 -4 -9 -8 -20 -8 -11 0 -20
4 -20 8 0 4 9 8 20 8 11 0 20 -4 20 -8z m-824 -34 c-9 -12 -16 -19 -16 -15 0
11 24 47 28 42 2 -2 -3 -14 -12 -27z m2143 -19 c11 -18 11 -23 0 -30 -16 -9
-15 -11 -23 24 -8 32 4 35 23 6z m-2239 -34 c0 -5 -5 -3 -10 5 -7 12 -10 8
-11 -15 -2 -72 -11 -141 -24 -189 -7 -28 -14 -46 -15 -41 -1 6 -4 26 -6 45 -9
58 -5 92 18 167 19 62 24 69 35 55 7 -10 12 -21 13 -27z m2138 25 c33 -15 42
-24 42 -44 0 -29 -3 -31 -52 -40 -37 -7 -37 -6 -43 31 -4 21 -9 46 -12 56 -6
22 11 22 65 -3z m702 -305 c32 -137 72 -295 89 -349 16 -54 26 -95 21 -90 -13
13 -74 222 -105 359 -35 156 -82 355 -89 380 -4 11 1 4 10 -15 9 -19 42 -147
74 -285z m-466 117 c-15 -65 -23 -80 -69 -125 -40 -41 -63 -55 -104 -66 -57
-14 -71 -10 -50 15 12 15 12 16 -6 11 -11 -4 -57 -18 -102 -31 -45 -14 -91
-29 -102 -35 -66 -36 -67 -35 -116 38 -53 81 -56 96 -17 87 129 -27 162 -29
202 -11 38 17 42 17 78 1 25 -12 45 -14 60 -9 l23 9 -23 19 c-15 13 -18 14
-10 3 20 -25 -2 -32 -43 -12 -40 19 -40 20 -20 61 13 25 23 32 55 35 28 2 40
0 40 -9 0 -15 16 -17 25 -3 13 21 20 8 20 -35 l0 -44 25 16 c71 45 120 120
120 185 0 65 13 78 23 23 6 -37 4 -69 -9 -123z m-101 146 c11 -33 -12 -108
-34 -108 -10 0 -12 103 -2 113 11 11 31 8 36 -5z m-63 -65 c-1 -43 -28 -114
-29 -77 -2 40 12 114 20 114 5 0 9 -17 9 -37z m140 15 c0 -16 -3 -19 -11 -11
-6 6 -8 16 -5 22 11 17 16 13 16 -11z m398 -70 c12 -51 38 -167 58 -258 20
-91 56 -221 80 -290 29 -83 40 -126 32 -129 -16 -5 -127 114 -144 155 -23 54
-34 126 -45 294 -6 85 -12 178 -15 205 -3 38 3 23 25 -60 36 -137 39 -125 6
25 -24 107 -30 150 -21 150 2 0 13 -42 24 -92z m-585 51 c-7 -25 -46 -69 -62
-69 -6 0 -11 17 -11 39 0 33 4 40 23 44 49 10 55 8 50 -14z m822 -186 c25 -67
90 -361 81 -371 -2 -1 -16 16 -31 38 -30 43 -48 56 -21 15 9 -14 23 -36 31
-49 9 -13 25 -57 36 -97 11 -41 27 -85 36 -98 20 -30 7 -42 -40 -34 -29 4 -39
11 -43 30 -4 15 -2 28 5 33 9 5 7 9 -6 12 -16 4 -25 32 -52 159 -45 211 -45
212 -15 141 14 -35 28 -61 30 -59 3 2 -3 21 -12 43 -9 21 -25 66 -35 99 -9 33
-18 51 -19 40 -2 -24 -69 240 -70 275 0 19 12 6 55 -57 30 -45 61 -99 70 -120z
m-1200 177 c3 -6 -1 -7 -9 -4 -18 7 -21 14 -7 14 6 0 13 -4 16 -10z m525 -80
c-14 -26 -24 -25 -51 3 l-23 22 18 -29 c16 -25 16 -30 3 -43 -10 -10 -17 -11
-21 -4 -4 6 -3 11 3 11 7 0 7 8 -1 25 -10 22 -8 29 12 50 13 14 29 25 37 25 7
0 13 6 14 13 0 6 5 -3 10 -21 6 -21 6 -39 -1 -52z m-901 -62 c-6 -32 -15 -55
-20 -53 -4 3 -12 -3 -18 -12 -9 -16 -10 -15 -11 9 0 45 -36 25 -51 -30 l-13
-46 -11 27 c-10 25 -13 26 -24 13 -8 -9 -21 -16 -30 -16 -10 0 -22 -12 -28
-27 l-11 -28 -1 28 -1 28 -25 -27 c-19 -20 -25 -23 -25 -10 0 9 -4 16 -10 16
-5 0 -10 -7 -10 -16 0 -8 -4 -13 -9 -10 -14 9 -3 126 14 152 8 13 13 24 9 24
-3 0 9 15 28 34 18 19 36 32 40 30 4 -2 9 0 13 6 10 17 25 11 18 -7 -5 -14 -2
-14 13 3 21 23 54 28 54 7 0 -20 18 -15 25 8 7 20 7 20 26 -2 l18 -21 13 27
12 27 13 -38 c10 -30 11 -50 2 -96z m366 122 c4 -6 10 -8 14 -6 3 3 7 -4 7
-15 0 -21 0 -20 -33 -24 -12 -1 -20 2 -17 7 3 5 12 7 20 4 11 -4 11 0 -2 19
-9 14 -12 25 -6 25 6 0 14 -5 17 -10z m85 -19 c5 -10 5 -23 -1 -32 -7 -12 -9
-12 -9 1 0 12 -2 12 -9 2 -6 -10 -10 -10 -20 2 -10 12 -8 15 11 19 l23 4 -22
8 c-13 4 -20 11 -18 16 8 12 34 0 45 -20z m300 -6 c0 -8 -4 -15 -10 -15 -5 0
-7 7 -4 15 4 8 8 15 10 15 2 0 4 -7 4 -15z m-528 -143 c4 -64 -7 -69 -16 -6
-8 64 -8 80 3 69 5 -6 11 -34 13 -63z m726 -136 c-25 -64 -84 -134 -133 -158
-40 -20 -88 -31 -81 -19 3 5 -3 7 -13 4 -11 -3 -29 2 -41 10 -20 14 -19 16 42
46 67 33 63 33 -46 -6 -73 -26 -126 -26 -175 1 -23 13 -23 14 31 40 45 22 59
25 82 16 31 -11 133 -14 122 -3 -4 4 -25 6 -46 4 -53 -3 -52 15 1 22 22 3 59
17 81 32 38 25 41 26 59 9 25 -23 24 -38 -6 -54 -20 -11 -28 -10 -49 4 -28 18
-36 20 -36 9 0 -5 13 -16 30 -25 28 -16 30 -16 67 11 65 47 69 56 39 88 -14
15 -26 31 -26 34 0 14 30 31 44 26 10 -4 13 -1 10 8 -6 15 26 56 38 49 4 -3 8
3 8 14 0 10 3 22 8 26 4 4 8 -23 10 -61 2 -52 -2 -82 -20 -127z m-2371 152
c-3 -8 -6 -5 -6 6 -1 11 2 17 5 13 3 -3 4 -12 1 -19z m707 -26 c-4 -6 -53 32
-54 41 0 5 13 -2 29 -15 15 -13 27 -25 25 -26z m1143 -95 c18 -35 11 -44 -25
-31 -23 8 -27 16 -30 54 l-3 44 21 -19 c12 -11 29 -33 37 -48z m-197 21 c0
-18 -2 -20 -9 -8 -6 8 -7 18 -5 22 9 14 14 9 14 -14z m620 -3 c7 -8 10 -22 6
-30 -3 -9 0 -15 10 -15 8 0 12 -5 8 -11 -4 -7 -19 2 -40 22 -25 24 -30 35 -21
41 17 11 23 10 37 -7z m-53 -21 c7 -22 -100 -32 -157 -14 -34 10 -12 18 60 23
77 5 93 4 97 -9z m-2213 -75 c5 -23 46 -50 46 -30 0 4 6 8 14 8 10 0 16 -18
21 -54 9 -71 25 -58 25 20 0 34 5 69 10 77 7 11 10 6 10 -20 l0 -35 20 30 c14
21 20 25 20 13 0 -29 14 -20 32 20 14 33 16 34 17 12 1 -20 3 -22 11 -10 8 12
10 10 10 -10 l1 -25 19 24 c38 45 20 2 -30 -71 -56 -83 -61 -112 -34 -210 18
-61 34 -76 34 -30 0 15 9 41 21 57 14 20 19 23 15 10 -3 -11 -8 -38 -12 -60
-7 -42 -72 -235 -83 -247 -4 -4 -8 13 -9 38 -2 58 -32 123 -110 242 -34 51
-66 110 -72 130 -11 42 -13 151 -3 178 6 16 8 15 14 -7 4 -13 10 -36 13 -50z
m1640 34 c-7 -39 -14 -42 -14 -5 0 18 4 32 9 32 5 0 7 -12 5 -27z m420 8 c58
-18 58 -18 26 -24 -18 -4 -49 -7 -70 -7 -20 0 -63 -13 -96 -29 -58 -28 -140
-46 -149 -32 -2 4 -2 17 1 28 5 17 15 22 56 25 36 2 52 -1 58 -12 5 -8 12 -11
16 -7 4 4 2 13 -4 19 -9 9 1 17 41 34 28 12 54 22 57 23 3 0 31 -8 64 -18z
m302 -91 c-17 -126 -102 -238 -184 -240 -19 0 -21 4 -16 25 3 14 2 25 -2 24
-5 -1 -31 -1 -58 0 -46 1 -48 2 -30 15 24 18 13 31 -14 15 -28 -18 -46 -7 -76
46 l-26 47 53 -6 c28 -4 72 -10 97 -15 24 -5 58 -7 75 -4 25 4 33 0 48 -26 17
-28 17 -30 0 -40 -10 -6 -14 -11 -10 -11 4 0 22 10 38 23 32 23 61 71 73 119
10 42 25 78 32 78 4 0 4 -22 0 -50z m-60 -74 c-18 -42 -32 -46 -39 -11 -3 19
2 31 22 46 31 25 37 13 17 -35z m-1513 6 c59 -30 89 -53 126 -95 24 -26 24
-26 2 -22 -18 3 -20 1 -11 -15 15 -27 12 -34 -7 -19 -15 12 -16 12 -10 -5 7
-18 6 -18 -20 -1 l-28 18 30 -33 c23 -25 25 -30 9 -22 -12 6 -25 8 -29 4 -3
-4 -5 -1 -3 6 2 8 -8 21 -22 30 l-25 16 20 -23 20 -24 -22 14 c-13 8 -23 21
-23 30 0 9 -7 19 -15 23 -13 5 -14 2 -4 -17 12 -22 12 -22 -9 -3 -12 10 -19
23 -15 29 3 6 1 7 -5 3 -6 -3 -16 3 -22 14 -6 11 -8 20 -4 20 4 0 0 8 -9 18
-13 15 -14 21 -4 32 7 8 8 11 1 7 -7 -4 -15 0 -18 9 -3 8 -2 12 4 9 6 -3 13 1
16 9 8 21 14 20 77 -12z m1157 -10 c28 -35 25 -49 -13 -56 -26 -5 -48 1 -101
28 l-67 34 33 10 c77 25 120 20 148 -16z m-310 3 c0 -8 -6 -15 -12 -16 -10 0
-10 -2 0 -6 18 -7 14 -23 -6 -23 -15 0 -18 6 -14 30 4 30 32 43 32 15z m620
-9 c0 -8 3 -21 6 -30 3 -9 1 -16 -5 -16 -14 0 -34 38 -26 50 9 15 25 12 25 -4z
m-2360 -11 c0 -8 -2 -15 -4 -15 -2 0 -6 7 -10 15 -3 8 -1 15 4 15 6 0 10 -7
10 -15z m37 -7 c-3 -8 -6 -5 -6 6 -1 11 2 17 5 13 3 -3 4 -12 1 -19z m1916
-24 c17 -9 34 -18 36 -20 10 -9 -61 -64 -83 -64 -45 0 -52 8 -48 53 6 75 7 75
95 31z m-223 -34 c0 -11 -6 -20 -12 -20 -10 0 -9 -3 1 -9 8 -5 9 -11 3 -15
-14 -9 -22 7 -20 38 3 30 28 36 28 6z m45 -55 c-4 -37 -11 -62 -14 -56 -7 11
9 134 17 127 2 -3 1 -34 -3 -71z m324 56 c18 -32 -11 -42 -45 -15 -10 8 -14
13 -8 10 7 -3 14 1 18 9 7 20 23 19 35 -4z m880 -153 c36 -30 41 -40 41 -76 0
-45 -11 -59 -32 -39 -7 7 -25 17 -39 24 -19 8 -31 27 -47 75 -11 34 -23 79
-27 98 -4 19 -9 44 -12 55 -3 11 13 -8 36 -41 22 -34 58 -77 80 -96z m-946 83
c-59 -43 -76 -50 -136 -57 l-55 -6 5 26 c5 23 10 26 48 26 36 0 49 6 79 36 35
35 35 35 66 19 l31 -16 -38 -28z m-1944 42 c-3 -20 2 -27 11 -13 5 8 12 11 16
7 9 -9 -15 -37 -32 -37 -14 0 -19 31 -7 43 8 9 13 9 12 0z m2151 -24 c0 -4
-14 -21 -30 -38 -34 -33 -112 -53 -133 -32 -15 15 -30 14 -21 -1 5 -10 4 -10
-6 -1 -11 10 -9 16 11 32 13 11 32 20 41 21 9 0 19 6 22 13 3 6 3 1 0 -13 -5
-23 -4 -24 7 -5 7 11 17 23 23 27 14 10 86 7 86 -3z m1024 -54 c4 -17 2 -16
-14 5 -10 14 -21 34 -24 45 -4 17 -2 16 14 -5 10 -14 21 -34 24 -45z m-2219
35 c3 -5 1 -10 -4 -10 -6 0 -11 5 -11 10 0 6 2 10 4 10 3 0 8 -4 11 -10z
m-1269 -41 c-7 -19 -21 -67 -31 -107 -10 -40 -19 -71 -22 -69 -3 4 15 97 31
158 5 20 29 59 33 55 2 -2 -3 -18 -11 -37z m356 -5 c-5 -11 -7 -26 -5 -34 4
-12 3 -12 -5 -1 -10 14 -28 -2 -18 -17 3 -5 -11 -24 -30 -43 -20 -19 -32 -26
-29 -16 4 9 11 17 16 17 5 0 9 5 9 11 0 5 -4 7 -10 4 -5 -3 -10 -2 -10 2 0 16
42 88 58 101 21 16 37 0 24 -24z m1796 -31 c-10 -2 -28 -2 -40 0 -13 2 -5 4
17 4 22 1 32 -1 23 -4z m-231 -90 c-3 -10 -5 -2 -5 17 0 19 2 27 5 18 2 -10 2
-26 0 -35z m-831 16 c10 -11 49 -43 86 -71 66 -48 83 -66 54 -55 -23 9 -27 -5
-9 -25 36 -40 -41 2 -91 50 -46 43 -47 44 -15 7 19 -22 55 -60 79 -84 50 -48
39 -44 -32 13 -54 42 -59 42 -23 0 29 -33 25 -45 -7 -18 -12 10 -18 13 -14 7
4 -7 2 -13 -3 -13 -6 0 -12 5 -12 10 -1 6 -2 14 -3 19 0 5 -5 13 -10 18 -5 5
-6 3 -2 -4 9 -17 -10 -17 -20 -1 -10 16 -14 168 -5 168 5 0 16 -9 27 -21z
m2418 -5 c3 -9 -1 -14 -13 -14 -10 0 -31 -7 -47 -15 -38 -20 -58 -2 -24 23 46
33 73 35 84 6z m-2354 -5 c0 -6 7 -9 15 -5 8 3 14 1 12 -3 -1 -5 9 -18 22 -30
36 -31 21 -34 -27 -5 -38 23 -57 54 -32 54 6 0 10 -5 10 -11z m2148 -41 c-22
-13 -28 -9 -28 19 0 26 0 26 20 8 16 -14 17 -20 8 -27z m202 5 c1 -16 2 -16
12 1 10 17 14 14 45 -35 52 -80 98 -183 127 -284 14 -49 26 -96 26 -104 0 -43
-188 322 -191 371 0 10 -2 10 -6 1 -5 -13 41 -138 59 -160 6 -7 8 -13 5 -13
-8 0 -128 152 -140 177 -8 18 -6 27 8 43 22 25 55 26 55 3z m-267 -88 c3 -22
4 -41 2 -43 -5 -5 -75 112 -75 126 0 9 12 4 34 -15 24 -20 35 -39 39 -68z
m130 18 c13 -27 27 -61 31 -77 4 -16 29 -88 55 -160 27 -72 66 -178 87 -236
50 -140 110 -273 180 -400 96 -176 91 -160 63 -183 -23 -18 -24 -18 -30 0 -45
124 -67 173 -110 247 -54 95 -134 288 -144 348 -3 20 -16 56 -29 80 -12 23
-47 88 -76 143 -29 55 -68 121 -87 148 -34 49 -42 82 -20 90 7 3 5 6 -5 6 -25
1 -22 16 5 29 42 20 56 14 80 -35z m-3436 -25 c-3 -8 -6 -5 -6 6 -1 11 2 17 5
13 3 -3 4 -12 1 -19z m1143 -39 c15 -28 5 -23 -15 7 -9 15 -12 23 -6 20 6 -4
16 -16 21 -27z m-1153 -1 c-3 -8 -6 -5 -6 6 -1 11 2 17 5 13 3 -3 4 -12 1 -19z
m380 -28 c-12 -33 -62 -96 -53 -68 6 19 54 98 60 98 2 0 -1 -14 -7 -30z m3009
-17 c17 -27 41 -68 53 -93 l22 -45 -31 35 c-54 60 -77 94 -84 123 -10 40 5 33
40 -20z m-2196 7 c0 -5 -2 -10 -4 -10 -3 0 -8 5 -11 10 -3 6 -1 10 4 10 6 0
11 -4 11 -10z m2441 -101 c94 -110 146 -202 224 -393 34 -84 85 -197 114 -251
48 -89 68 -136 91 -207 7 -22 5 -28 -6 -28 -20 0 -18 -4 18 -41 21 -20 28 -34
20 -37 -6 -2 -24 10 -38 27 -14 17 -31 28 -36 24 -6 -3 -8 -2 -5 3 8 13 -2 26
-38 49 l-30 19 50 12 50 12 -51 -1 c-62 -1 -79 11 -87 60 -8 49 -69 255 -74
250 -2 -3 10 -52 27 -111 18 -58 30 -111 28 -118 -11 -31 -130 205 -171 339
-13 43 -54 159 -90 258 -68 188 -83 233 -74 225 3 -3 38 -44 78 -91z m-1601
54 c-1 -21 -13 -53 -21 -53 -5 0 -7 10 -5 23 3 12 5 25 5 30 1 4 6 7 11 7 6 0
10 -3 10 -7z m-2062 -55 c-10 -45 -114 -322 -130 -348 -7 -11 -8 -10 -3 5 4
11 17 58 30 105 46 162 92 280 109 280 2 0 0 -19 -6 -42z m3469 -59 c32 -41
65 -90 72 -107 7 -17 17 -30 21 -27 4 2 12 -7 19 -21 16 -35 13 -44 -4 -14
-17 30 -20 21 -4 -14 7 -14 16 -23 22 -19 5 3 7 0 5 -8 -3 -8 3 -35 13 -61 11
-27 28 -72 40 -100 24 -63 21 -60 -63 57 -99 135 -166 269 -192 380 -9 35 -8
35 71 -66z m-2329 -14 c-3 -3 -9 2 -12 12 -6 14 -5 15 5 6 7 -7 10 -15 7 -18z
m64 -93 c11 -18 17 -36 13 -40 -4 -4 -10 -1 -12 6 -3 7 -10 18 -17 25 -12 12
-46 75 -46 85 0 9 40 -40 62 -76z m-899 -65 c-14 -23 -49 -76 -78 -117 -29
-41 -78 -118 -110 -170 -68 -112 -63 -106 -75 -94 -7 7 27 70 101 190 166 268
158 257 174 244 12 -10 10 -18 -12 -53z m882 -118 c67 -60 180 -194 218 -258
28 -48 14 -37 -32 24 -40 53 -112 115 -134 115 -6 0 0 -11 13 -25 13 -14 20
-28 17 -32 -10 -9 -49 38 -43 53 2 6 -23 38 -56 70 -80 79 -98 106 -104 156
l-5 43 28 -41 c15 -23 60 -70 98 -105z m-1199 -27 c-50 -89 -86 -138 -86 -117
0 11 101 177 117 193 7 7 13 18 13 24 0 6 3 9 6 5 3 -3 -19 -50 -50 -105z m-3
65 c-20 -23 -51 -73 -98 -164 -15 -29 -33 -53 -41 -53 -19 0 -18 6 12 59 53
91 133 196 142 186 3 -3 -4 -15 -15 -28z m177 -2 c-7 -9 -10 -18 -7 -22 4 -3
-1 -12 -11 -20 -10 -9 -11 -11 -2 -7 11 6 10 0 -5 -21 -31 -48 -105 -178 -111
-197 -3 -10 -14 -18 -25 -18 -23 0 -24 -2 59 140 57 96 100 160 109 160 3 0 0
-7 -7 -15z m914 -10 c15 -23 15 -30 2 -74 -8 -26 -19 -58 -25 -70 -6 -11 -16
-30 -21 -41 -6 -11 -8 -31 -4 -45 4 -15 -9 -73 -32 -152 -22 -70 -40 -119 -42
-110 -5 25 28 218 41 242 17 31 37 88 37 108 0 10 4 16 8 13 5 -3 9 9 9 27 0
18 4 52 8 77 5 33 4 41 -4 30 -6 -8 -11 -10 -11 -4 0 9 9 24 16 24 1 0 9 -11
18 -25z m-1123 -167 c-16 -34 -34 -64 -41 -66 -6 -2 1 20 15 49 48 96 67 108
26 17z m1224 53 c3 -5 1 -12 -4 -15 -5 -3 -11 1 -15 9 -6 16 9 21 19 6z m1126
-29 c14 -36 7 -35 -18 3 -17 26 -19 33 -7 28 9 -3 20 -17 25 -31z m-2407 -67
c-4 -8 -8 -15 -10 -15 -2 0 -4 7 -4 15 0 8 4 15 10 15 5 0 7 -7 4 -15z m1216
-116 c-9 -31 -9 -31 10 -14 19 18 20 17 20 -13 0 -18 4 -32 9 -32 5 0 9 -32 9
-70 1 -39 3 -74 7 -79 8 -13 -26 -131 -38 -131 -5 0 -6 8 -2 18 9 25 19 78 13
72 -3 -3 -25 -50 -48 -105 -57 -138 -98 -225 -106 -225 -4 0 -4 19 0 43 l6 42
-19 -25 -20 -25 4 65 c2 36 10 83 18 105 22 62 32 129 17 120 -8 -5 -10 -2 -6
11 3 11 12 51 21 90 15 65 44 128 45 97 0 -22 20 -14 30 12 6 14 14 36 20 50
14 35 20 31 10 -6z m1169 -28 c22 -45 22 -50 7 -79 -24 -46 -34 -47 -46 -2
-11 41 -4 130 9 130 4 0 18 -22 30 -49z m71 -181 c36 -109 36 -120 9 -120 -11
0 -18 4 -15 9 3 4 -5 6 -18 4 -22 -5 -25 0 -41 72 -16 74 -16 79 1 117 21 47
22 45 64 -82z m-985 29 c14 -44 25 -83 25 -87 -1 -13 -42 72 -45 93 -1 11 -6
32 -10 48 -4 15 -5 27 -2 27 4 0 18 -36 32 -81z m-1399 34 c-6 -47 -8 -49 -15
-18 -8 32 -5 45 9 45 5 0 7 -12 6 -27z m2664 -16 c14 -25 13 -30 -3 -59 -14
-24 -14 -28 -3 -19 13 11 21 9 47 -13 37 -31 74 -34 89 -6 6 12 21 20 35 20
78 0 135 -175 85 -258 l-20 -33 -27 20 c-14 12 -31 21 -38 21 -9 0 -7 15 6 53
10 28 18 72 18 97 l-1 45 -10 -35 c-6 -19 -17 -59 -24 -88 -12 -41 -22 -57
-47 -72 -54 -33 -67 -27 -136 66 l-64 85 20 22 c10 12 25 31 33 42 l15 20 -25
-20 c-13 -11 -31 -26 -39 -34 -18 -17 -26 0 -36 84 -7 53 -6 59 16 77 36 27
89 20 109 -15z m-1356 -142 c30 -167 68 -318 120 -475 41 -125 53 -190 37
-199 -8 -5 -8 -22 -2 -53 8 -47 -2 -90 -12 -52 -3 10 -4 -12 -1 -51 3 -50 1
-64 -6 -50 -10 21 -10 22 5 -99 4 -29 3 -46 -3 -42 -10 6 -22 -48 -22 -106 0
-21 -4 -38 -10 -38 -5 0 -10 7 -10 17 0 27 -11 8 -15 -27 -5 -36 -15 -54 -15
-26 0 9 -4 14 -10 11 -5 -3 -10 -32 -11 -63 -1 -70 -17 -43 -18 31 -1 77 -21
54 -22 -25 0 -80 -11 -71 -24 19 -11 80 -21 71 -17 -15 4 -89 -12 -83 -23 8
-7 63 -24 102 -26 60 0 -23 -1 -23 -9 -5 -5 11 -9 40 -10 65 -1 44 -1 45 -15
20 -13 -23 -14 -20 -15 49 0 70 -1 73 -16 55 -14 -18 -15 -14 -10 51 3 39 8
86 11 105 4 26 0 21 -14 -20 l-21 -55 5 95 c3 52 8 111 11 130 l5 35 -16 -25
c-15 -25 -16 -24 -9 19 3 24 8 93 10 155 5 162 10 205 28 266 35 120 85 298
97 348 7 29 16 49 20 45 4 -5 19 -75 33 -158z m36 13 c12 -62 32 -144 45 -183
13 -38 29 -97 35 -130 13 -65 48 -184 60 -200 9 -13 50 -130 50 -141 -2 -29
-34 55 -145 371 -23 65 -86 383 -84 425 1 31 19 -33 39 -142z m-1917 52 c-33
-33 -67 -60 -73 -60 -15 0 110 119 125 119 6 1 -18 -26 -52 -59z m4776 36 c9
-11 8 -18 -4 -30 -9 -9 -20 -16 -25 -16 -9 0 -20 25 -20 46 0 18 34 18 49 0z
m-4584 -6 c-4 -6 8 -10 27 -11 22 -1 11 -5 -32 -13 -36 -6 -82 -21 -103 -34
-21 -12 -36 -18 -32 -12 6 10 126 80 138 80 5 0 5 -4 2 -10z m2660 -33 c10
-52 -7 -80 -62 -101 -26 -10 -70 -29 -98 -41 -27 -13 -61 -25 -75 -27 -23 -3
-25 0 -28 45 l-3 47 43 0 c55 0 137 40 175 84 32 38 40 37 48 -7z m1678 -4
c-22 -17 -53 -16 -53 1 0 7 10 21 23 29 20 14 23 14 35 -1 11 -14 10 -19 -5
-29z m-3957 -19 c-2 -30 -7 -59 -11 -62 -4 -4 -4 16 -2 43 3 28 6 56 6 63 1 6
3 12 6 12 3 0 4 -25 1 -56z m1521 24 c-3 -7 -5 -2 -5 12 0 14 2 19 5 13 2 -7
2 -19 0 -25z m2800 -25 c119 -62 124 -90 7 -38 -31 14 -74 28 -95 31 -37 6
-38 7 -22 31 9 13 19 22 22 21 3 -2 43 -22 88 -45z m-247 -11 c44 -42 50 -62
21 -62 -11 0 -21 -5 -23 -12 -10 -29 -38 13 -53 80 -9 43 5 41 55 -6z m-87
-21 c6 -25 4 -37 -8 -51 -17 -19 -51 -17 -52 3 -1 7 -4 26 -8 44 -6 28 -4 32
16 36 37 7 42 3 52 -32z m-2411 -28 c-10 -28 -10 -28 -11 12 -1 28 2 36 10 28
8 -8 8 -19 1 -40z m-162 -98 c39 -144 45 -176 32 -155 -9 13 -72 257 -72 276
0 21 11 -13 40 -121z m2843 0 c5 -11 17 -31 25 -45 12 -20 10 -19 -11 5 -23
26 -33 49 -61 130 -4 11 3 0 15 -25 12 -25 26 -54 32 -65z m-4856 89 c-3 -3
-12 -4 -19 -1 -8 3 -5 6 6 6 11 1 17 -2 13 -5z m233 2 c0 -2 -8 -10 -17 -17
-16 -13 -17 -12 -4 4 13 16 21 21 21 13z m1995 -16 c3 -10 1 -29 -6 -41 -10
-20 -13 -20 -20 -6 -10 18 -2 67 11 67 5 0 11 -9 15 -20z m2573 -5 c17 -37 15
-41 -8 -12 -22 27 -25 37 -12 37 5 0 14 -11 20 -25z m-1888 -52 c-1 -72 -8
-88 -53 -117 -23 -16 -31 -17 -57 -6 -37 15 -50 37 -50 82 0 37 36 80 77 92
22 7 22 7 8 -28 -21 -50 -19 -78 3 -36 54 104 72 107 72 13z m65 21 c11 -2 23
2 26 8 10 16 22 -77 16 -117 -9 -57 -30 -88 -79 -118 -69 -43 -134 -40 -204 8
-28 19 -66 53 -83 76 -31 38 -47 84 -32 94 4 2 8 -5 8 -16 1 -11 15 -34 31
-50 l30 -31 21 23 20 22 26 -25 c36 -36 70 -43 108 -21 42 25 66 69 74 134 4
35 9 47 13 34 3 -10 15 -20 25 -21z m1771 -1 c4 -21 15 -62 25 -90 19 -57 19
-59 -26 -61 -48 -3 -57 9 -53 69 3 52 4 53 15 27 21 -48 24 -30 3 22 -18 46
-18 50 -2 59 27 16 31 13 38 -26z m-2657 -93 c17 -58 44 -147 61 -198 30 -93
39 -145 21 -126 -5 5 -21 56 -36 114 -15 58 -33 115 -41 126 -12 21 -35 103
-48 174 -12 66 12 16 43 -90z m2589 29 c1 -38 -1 -69 -6 -69 -17 0 -42 60 -42
103 0 41 2 44 23 40 21 -4 23 -10 25 -74z m-2428 64 c0 -5 -12 -26 -26 -48
-27 -43 -27 -41 -4 18 12 33 30 50 30 30z m2590 -120 c0 -12 -4 -15 -31 -17
-12 -1 -39 74 -39 109 0 14 10 6 35 -29 19 -27 35 -55 35 -63z m-1644 60 c23
-26 24 -33 19 -100 -5 -61 -2 -79 15 -112 22 -45 26 -81 21 -221 -3 -95 -3
-95 -12 -40 -5 30 -18 91 -29 135 -11 43 -25 131 -30 195 -6 63 -12 127 -15
143 -2 15 -2 27 1 27 3 0 16 -12 30 -27z m-110 -503 c-7 -266 -15 -332 -68
-507 -51 -173 -54 -245 -13 -408 15 -60 34 -139 41 -175 l13 -65 -4 70 c-2 39
-13 111 -25 160 -29 124 -28 235 4 348 13 49 27 92 30 95 3 3 6 -25 6 -62 0
-37 10 -114 21 -169 15 -71 22 -142 23 -233 0 -73 4 -128 7 -122 3 5 9 -42 12
-105 4 -81 2 -130 -8 -173 -16 -70 -42 -134 -53 -134 -15 0 -49 44 -75 96
l-26 51 31 23 c31 23 92 138 103 195 3 17 -5 2 -18 -31 -31 -81 -73 -151 -98
-165 -11 -6 -23 -9 -25 -7 -2 3 -9 51 -15 109 -14 125 -7 336 17 553 16 150
17 167 1 325 -10 91 -17 193 -17 226 1 139 39 317 103 485 l22 55 8 -110 c4
-60 6 -207 3 -325z m181 397 c12 -17 38 -72 58 -122 41 -103 46 -164 21 -281
-11 -51 -13 -89 -7 -135 l8 -64 2 59 c0 33 8 89 17 125 8 36 17 77 20 91 5 23
7 21 21 -18 13 -39 13 -58 -3 -175 -9 -73 -18 -143 -19 -157 -1 -14 -6 -63
-10 -110 l-8 -85 -48 98 c-69 141 -74 174 -60 407 12 203 10 230 -21 269 -19
25 -22 49 -12 100 8 39 14 39 41 -2z m188 17 c26 -17 33 -34 14 -34 -5 0 -7 6
-3 13 4 6 5 10 1 7 -3 -3 -6 -7 -6 -10 -1 -3 -8 -27 -16 -54 -17 -55 -20 -146
-5 -111 6 13 7 -3 3 -45 -3 -36 -6 -66 -7 -67 -1 -1 -19 42 -40 95 -22 53 -50
119 -62 145 -25 52 -26 51 41 66 56 13 53 13 80 -5z m1460 -44 c15 -22 26 -43
23 -46 -5 -5 -68 80 -68 92 0 11 18 -7 45 -46z m-95 -20 c24 -47 26 -70 5 -70
-14 0 -55 76 -55 101 0 24 32 5 50 -31z m-110 -52 c7 -22 5 -30 -8 -38 -15 -9
-16 -9 -1 -10 13 0 20 -17 28 -67 7 -38 14 -76 16 -85 4 -21 -13 -36 -19 -16
-4 15 -26 104 -32 133 -12 51 -19 112 -16 135 l4 25 10 -25 c6 -14 14 -37 18
-52z m-1243 40 c-3 -8 -6 -5 -6 6 -1 11 2 17 5 13 3 -3 4 -12 1 -19z m1123
-35 c0 -27 0 -77 1 -113 2 -82 -18 -93 -23 -13 -2 32 0 60 5 61 4 2 3 10 -4
18 -12 15 -3 94 12 94 5 0 9 -21 9 -47z m392 -20 c8 -16 27 -49 42 -75 25 -43
26 -48 9 -47 -12 0 -28 21 -50 68 -18 38 -33 71 -33 75 0 16 20 3 32 -21z
m-2685 -40 c-3 -10 -5 -2 -5 17 0 19 2 27 5 18 2 -10 2 -26 0 -35z m2581 -65
c17 -51 26 -94 21 -96 -14 -5 -11 -22 4 -22 12 0 23 -25 42 -87 9 -34 -17 -29
-32 5 -27 62 -100 282 -95 287 18 17 33 -5 60 -87z m-3297 -54 c-52 -207 -62
-335 -41 -545 21 -210 82 -490 135 -622 13 -31 20 -55 15 -52 -5 3 0 -16 12
-42 23 -54 34 -70 23 -34 -4 15 -3 21 3 17 5 -3 13 1 16 10 3 8 10 12 16 9 5
-3 10 -1 10 6 0 8 4 8 15 -1 13 -10 15 -9 15 11 l0 23 16 -23 c13 -18 18 -20
25 -10 7 11 9 9 10 -6 3 -47 -4 -84 -26 -140 -26 -63 -26 -86 -2 -38 45 87 58
229 32 342 -9 35 -14 66 -11 68 2 2 7 -8 10 -23 4 -14 10 -23 13 -20 4 4 13
-4 19 -16 l13 -23 8 23 9 24 12 -26 c6 -14 16 -26 21 -26 14 0 51 41 51 56 0
7 4 15 9 18 5 3 8 -54 8 -132 -1 -114 3 -147 20 -200 12 -35 29 -72 39 -83 28
-31 74 -24 122 17 l42 36 -25 -48 c-25 -47 -33 -90 -15 -79 17 10 11 -21 -19
-103 -30 -82 -63 -141 -116 -207 -17 -22 -37 -51 -44 -65 -22 -45 46 38 109
133 32 49 61 84 64 78 12 -18 -11 -89 -53 -167 -23 -42 -40 -78 -38 -81 6 -5
73 107 92 155 10 24 19 41 22 39 8 -9 -40 -135 -93 -240 -83 -165 -90 -212
-100 -642 -9 -396 11 -644 66 -810 11 -33 18 -69 16 -80 -2 -11 -9 -53 -16
-92 -6 -40 -16 -75 -21 -79 -5 -3 -9 1 -9 9 0 8 -18 34 -41 58 -31 33 -33 35
-11 7 40 -48 56 -103 45 -147 l-9 -34 -39 68 c-22 38 -53 76 -70 87 -54 33
-127 19 -192 -36 -32 -27 -33 -27 -33 -6 0 40 32 90 74 116 28 17 33 23 16 19
-20 -6 -23 -5 -12 6 6 7 12 29 12 49 0 20 5 41 12 48 13 13 5 15 -29 6 -17 -5
-23 -14 -23 -33 0 -20 3 -22 9 -12 6 10 8 -1 4 -30 -5 -42 -26 -79 -45 -79
-14 0 -9 75 8 121 13 35 15 71 11 179 l-5 135 13 -90 c7 -49 14 -98 14 -107 1
-11 6 -15 16 -11 12 4 15 16 12 46 -5 51 1 77 20 77 15 0 15 1 -3 138 -5 33
-8 41 -13 28 -8 -21 -41 100 -41 150 0 23 -2 26 -10 14 -7 -11 -9 -6 -8 20 2
46 -12 130 -22 130 -8 0 -24 98 -38 225 -9 86 -4 342 7 410 7 42 9 32 10 -67
2 -211 34 -474 76 -618 46 -157 104 -497 90 -520 -5 -8 52 -3 63 5 2 2 -14 83
-75 369 -4 21 -3 27 5 22 7 -4 12 0 13 11 0 10 3 13 6 6 8 -21 23 -15 23 10 1
40 20 -7 35 -86 11 -58 13 -62 10 -22 -2 28 -8 188 -14 357 -10 306 -18 403
-47 573 -15 91 -46 203 -64 233 -8 15 -10 15 -10 -3 -1 -14 -5 -11 -13 12 -7
18 -16 33 -21 34 -5 0 -19 -22 -31 -50 -30 -72 -35 -72 -35 0 0 45 -3 60 -10
49 -8 -12 -10 -12 -11 5 0 16 -4 14 -15 -10 -14 -30 -14 -29 -9 20 2 28 8 124
12 215 7 163 7 164 20 110 l12 -55 -5 55 c-2 30 -33 172 -68 315 -35 143 -69
287 -75 320 -55 307 -79 668 -46 725 8 14 14 35 15 48 0 13 4 21 9 18 4 -3 19
26 32 64 13 38 25 68 27 66 1 -2 -6 -39 -17 -82z m584 -84 c32 -82 85 -262 85
-287 0 -40 -15 -16 -29 47 -16 72 -72 252 -82 265 -4 6 -10 28 -13 50 l-7 40
17 -40 c8 -22 22 -56 29 -75z m2907 37 c-6 -12 -22 3 -33 31 -7 18 -6 27 3 33
8 5 16 -2 23 -24 6 -18 10 -35 7 -40z m-478 7 c9 -23 7 -64 -3 -64 -9 0 -21
34 -21 63 0 21 16 22 24 1z m-1424 -254 c-6 -91 -15 -181 -20 -200 -9 -31 -9
-30 -5 15 2 28 7 129 11 224 5 126 10 168 16 150 6 -15 6 -84 -2 -189z m-1010
86 c0 -26 -6 -18 -14 19 -5 22 -4 26 4 15 5 -8 10 -24 10 -34z m2804 -2 c3 -9
6 -25 6 -37 0 -27 -16 -11 -25 26 -8 29 8 39 19 11z m-1767 -91 c-2 -16 -4 -3
-4 27 0 30 2 43 4 28 2 -16 2 -40 0 -55z m-10 -75 c-3 -7 -5 -2 -5 12 0 14 2
19 5 13 2 -7 2 -19 0 -25z m-1547 -40 c25 -68 36 -124 20 -98 -5 8 -17 40 -25
70 -9 30 -18 63 -21 73 -3 9 -3 17 -1 17 2 0 15 -28 27 -62z m1629 -63 c38
-82 40 -88 31 -143 -17 -101 -12 -231 11 -300 19 -55 20 -73 12 -189 l-8 -128
-53 105 c-79 157 -85 228 -47 595 7 71 11 133 9 137 -3 5 -3 8 0 8 3 0 23 -38
45 -85z m-1615 -63 c37 -86 51 -147 17 -77 -38 77 -75 184 -57 164 2 -2 20
-41 40 -87z m11 -123 c-7 -21 10 -27 19 -6 3 6 3 0 0 -15 -4 -16 4 -55 17 -95
12 -37 23 -86 24 -108 0 -22 5 -49 10 -60 20 -44 -23 12 -50 66 -53 103 -52
153 1 64 14 -25 28 -44 31 -42 2 3 -10 29 -28 58 -41 70 -78 198 -44 153 21
-27 18 -10 -5 36 -11 22 -20 45 -20 52 1 7 12 -9 26 -35 15 -29 22 -56 19 -68z
m514 -157 c-12 -55 -35 -112 -47 -112 -8 0 5 107 27 219 6 29 12 70 13 90 0
20 4 -7 8 -59 5 -53 4 -114 -1 -138z m7 -87 c-15 -51 -55 -130 -62 -123 -1 2
14 50 34 107 38 106 57 117 28 16z m-492 -33 c20 -35 31 -60 26 -57 -12 8 -70
106 -70 119 0 13 2 10 44 -62z m506 -27 c-22 -65 -20 -86 5 -34 l15 34 -5 -35
c-3 -19 -15 -55 -28 -79 -25 -49 -49 -67 -39 -29 5 21 4 22 -12 9 -18 -15 -21
-24 46 143 24 62 31 73 35 60 2 -5 -6 -36 -17 -69z m30 -82 c-20 -68 -69 -153
-87 -153 -9 0 -6 11 9 38 12 20 35 61 51 90 32 58 40 65 27 25z m2 -75 c-8 -8
-9 -4 -5 13 4 13 8 18 11 10 2 -7 -1 -18 -6 -23z m1065 -156 l56 -107 -6 -97
c-7 -132 -13 -141 -60 -77 -37 49 -38 53 -48 172 -9 119 -15 171 -25 232 l-6
30 17 -23 c9 -13 42 -71 72 -130z m-1077 131 c0 -5 -10 -19 -21 -33 l-21 -25
18 33 c18 32 24 38 24 25z m-6 -61 c-6 -4 -17 -18 -23 -30 -7 -13 -15 -21 -18
-19 -7 8 28 57 41 57 8 0 8 -2 0 -8z m1171 -420 c-5 -39 -10 -51 -18 -43 -7 7
-6 31 4 83 16 82 26 54 14 -40z m-224 -2 l2 -85 -26 -3 c-26 -3 -27 -1 -27 41
0 39 35 145 45 135 2 -2 5 -41 6 -88z m-98 -43 c-4 -23 -8 -25 -20 -15 -18 15
-38 54 -47 92 l-7 30 39 -40 c33 -32 39 -45 35 -67z m237 32 c0 -8 -31 -21
-37 -15 -2 2 -6 21 -9 42 l-6 39 26 -30 c14 -16 25 -33 26 -36z m-20 -48 c0
-6 -4 -13 -10 -16 -5 -3 -10 1 -10 9 0 9 5 16 10 16 6 0 10 -4 10 -9z m50 -26
c-16 -20 -70 -49 -70 -38 1 9 73 62 79 57 2 -2 -2 -11 -9 -19z m-278 -17 c17
-12 52 -23 79 -26 l49 -5 0 -47 c0 -55 -11 -64 -63 -49 -55 15 -126 108 -84
109 6 0 4 5 -5 11 -17 9 -25 29 -12 29 3 0 20 -10 36 -22z m288 -31 c-11 -18
-33 -46 -50 -62 l-30 -29 0 31 c0 24 6 33 29 43 16 6 37 20 47 31 25 28 26 24
4 -14z m-4 -170 c-25 -53 -46 -105 -46 -114 -1 -39 -18 13 -25 75 l-7 63 51
54 c28 30 51 60 52 67 1 7 6 -1 11 -18 9 -27 4 -43 -36 -127z m-182 37 l39 7
-6 -83 c-5 -85 -60 -287 -70 -258 -3 8 -8 45 -11 82 -4 37 -11 78 -16 90 -10
23 -10 22 -6 -2 3 -14 10 -71 16 -127 9 -85 8 -116 -5 -184 -20 -110 -19 -250
5 -394 25 -153 39 -334 31 -405 l-7 -55 -8 80 c-16 171 -38 317 -72 485 -46
225 -54 367 -29 508 10 56 21 102 25 102 4 0 12 -15 18 -32 8 -22 10 -24 7 -8
-2 14 -7 45 -10 70 l-5 45 14 -30 c18 -35 21 -19 5 22 -6 15 -15 43 -19 61 -7
29 -6 33 8 28 15 -5 15 -4 0 8 -35 26 -17 35 20 10 30 -21 44 -24 76 -20z
m305 -29 c0 -25 -2 -27 -8 -10 -5 11 -11 36 -15 55 -7 35 -7 35 8 10 9 -14 15
-38 15 -55z m-50 -15 c7 -33 10 -92 8 -132 -3 -40 -2 -57 0 -38 8 63 20 53 32
-25 20 -137 8 -386 -29 -605 -5 -30 -17 -122 -26 -205 -31 -295 -33 -303 -30
-110 3 144 2 164 -5 100 -5 -44 -13 -199 -17 -345 l-7 -265 -19 73 c-17 66
-17 87 -7 227 6 84 17 195 26 247 18 116 35 325 35 432 0 105 -24 269 -50 348
-31 95 -34 127 -15 192 9 31 19 56 21 53 2 -2 4 -61 5 -130 0 -70 5 -129 10
-132 8 -6 13 100 9 236 -1 53 23 139 40 139 4 0 13 -27 19 -60z m-1609 -226
c0 -36 18 -29 22 9 2 26 8 15 32 -63 31 -103 34 -148 21 -315 l-9 -110 -12 50
-12 50 -2 -65 -2 -65 -19 95 c-25 122 -29 131 -26 48 3 -75 -8 -71 -18 7 -4
27 -10 55 -13 60 -4 6 -7 19 -9 30 -1 11 -6 38 -12 60 -14 52 -14 205 -1 205
6 0 10 8 10 17 0 25 11 9 20 -29 8 -33 8 -33 9 10 1 45 21 51 21 6z m1409
-511 c-1 -451 1 -551 14 -618 24 -124 29 -178 19 -206 -9 -22 -16 -25 -58 -24
l-49 0 -3 77 c-2 48 5 117 18 183 11 58 20 143 20 188 0 93 -24 315 -39 365
-16 53 -23 193 -13 237 9 37 10 35 12 -40 1 -44 5 -91 9 -105 4 -14 5 36 3
110 -4 128 -3 141 28 253 18 64 34 117 37 117 2 0 3 -242 2 -537z m-1069 462
c6 14 8 2 8 -35 -1 -33 -3 -42 -5 -22 -2 17 -9 32 -14 32 -6 0 -7 -4 -4 -10 3
-5 3 -16 -1 -22 -14 -22 -21 34 -10 67 l11 30 4 -30 c3 -26 4 -28 11 -10z
m1180 -265 c11 -116 -1 -370 -25 -558 -8 -62 -16 -139 -16 -170 -1 -31 -4 -70
-8 -87 -17 -72 -22 142 -15 594 l8 476 23 -75 c13 -41 28 -122 33 -180z
m-1131 150 c0 -39 -2 -50 -9 -39 -13 22 -20 83 -13 110 6 22 7 22 14 3 4 -10
8 -44 8 -74z m-452 -802 c-2 -13 -4 -5 -4 17 -1 22 1 32 4 23 2 -10 2 -28 0
-40z m70 -5 c-3 -10 -5 -4 -5 12 0 17 2 24 5 18 2 -7 2 -21 0 -30z m1420 -25
c-3 -7 -5 -2 -5 12 0 14 2 19 5 13 2 -7 2 -19 0 -25z m-1329 -105 c10 -56 -1
-76 -12 -22 -7 35 -8 84 -2 78 2 -2 9 -28 14 -56z m1334 -298 c-5 -36 -46
-155 -53 -155 -4 0 -9 8 -12 18 -2 9 -8 24 -11 32 -4 10 4 21 24 34 17 10 29
20 27 23 -3 2 -17 -3 -31 -13 -31 -19 -31 -19 -39 24 -6 29 -4 33 26 46 44 20
73 16 69 -9z m66 -22 c8 -25 8 -39 2 -41 -6 -2 -8 -8 -5 -12 3 -5 11 -7 18 -5
7 2 24 -12 40 -33 15 -20 43 -57 62 -81 20 -24 34 -48 32 -54 -12 -36 -115
-69 -124 -40 -2 6 -11 19 -19 29 -14 18 -15 18 -4 -3 16 -34 -10 -30 -49 6
-31 29 -38 60 -24 97 6 16 7 16 14 -2 6 -15 8 -16 8 -3 2 34 80 34 82 0 1 -14
2 -13 6 2 2 9 9 15 14 12 5 -4 9 -2 9 4 0 15 -42 24 -84 18 -38 -5 -41 -1 -30
41 4 12 14 22 23 22 12 0 13 2 3 8 -13 9 -6 72 8 72 3 0 12 -17 18 -37z m-187
-73 c4 -44 -1 -71 -11 -65 -5 3 -10 29 -10 58 0 51 16 57 21 7z m-1286 -12
c-13 -24 -35 -72 -48 -108 -13 -36 -37 -90 -51 -119 -15 -29 -22 -50 -16 -46
7 4 27 39 46 78 38 79 45 63 14 -35 -12 -41 -14 -57 -5 -45 7 10 21 48 30 85
43 170 66 233 83 230 19 -4 20 -36 3 -82 -18 -45 -23 -24 -6 24 8 24 13 45 11
48 -5 4 -16 -34 -65 -212 -21 -75 -22 -116 -2 -65 46 117 58 125 41 28 -15
-89 -28 -119 -48 -112 -12 3 -13 2 -4 -4 9 -7 6 -15 -14 -34 l-27 -24 13 24
c9 17 9 22 0 16 -6 -4 -20 -26 -30 -49 -10 -22 -19 -33 -19 -23 -1 9 -8 17
-16 17 -12 0 -13 -4 -6 -18 9 -16 6 -18 -20 -14 -32 5 -31 4 -23 26 3 9 11 13
17 9 6 -3 7 -1 3 6 -5 7 8 31 31 59 l38 47 -44 -35 c-24 -19 -53 -49 -64 -67
-15 -27 -25 -33 -48 -31 -20 2 -28 7 -24 16 3 7 5 18 5 24 0 5 24 35 54 66 60
64 80 99 130 232 32 85 58 130 77 130 4 0 -3 -19 -16 -42z m95 -11 c-5 -17
-13 -86 -19 -152 -6 -66 -13 -131 -16 -145 l-6 -25 11 24 c5 13 15 55 21 95
10 64 41 158 59 179 8 9 43 -45 53 -82 3 -14 -2 -44 -14 -73 -10 -27 -19 -56
-19 -66 0 -9 -13 -45 -30 -79 -16 -35 -26 -63 -22 -63 4 -1 -3 -9 -15 -19 -12
-10 -19 -22 -15 -26 4 -5 1 -5 -6 -1 -7 4 -18 3 -25 -2 -8 -7 -28 -7 -60 0
-42 9 -46 12 -37 29 7 13 23 20 48 21 37 1 37 1 4 5 l-32 4 24 32 c34 47 46
90 55 202 9 104 28 188 42 180 4 -3 4 -20 -1 -38z m-199 -114 c-64 -126 -68
-138 -26 -78 10 15 10 8 -2 -23 -11 -29 -35 -59 -69 -89 -33 -27 -57 -58 -65
-80 -10 -30 -13 -33 -21 -19 -5 9 -13 14 -19 11 -15 -10 -10 18 9 50 11 17 45
57 78 90 39 40 73 89 98 140 38 78 73 135 82 135 2 0 -27 -62 -65 -137z m220
71 c-22 -55 -27 -45 -10 22 7 27 15 42 21 36 5 -5 1 -29 -11 -58z m1231 -106
c-2 -15 -8 -28 -12 -28 -18 0 -44 108 -33 137 10 24 50 -74 45 -109z m-53 30
c10 -30 9 -31 -4 -14 -8 11 -15 26 -15 33 0 22 8 14 19 -19z m-1476 -19 c-10
-17 -33 -48 -51 -70 -19 -21 -29 -39 -23 -39 5 0 28 24 50 53 71 91 73 93 44
40 -33 -60 -164 -201 -181 -195 -7 2 -12 8 -12 13 0 6 4 8 9 4 5 -3 12 -1 16
5 3 5 1 10 -4 10 -23 0 -8 22 57 87 38 37 77 80 86 96 25 37 31 34 9 -4z
m1621 -101 c16 -38 21 -58 13 -59 -18 -1 -40 -6 -58 -14 -26 -10 -38 60 -23
135 7 31 7 31 25 13 10 -10 29 -44 43 -75z m126 -59 c18 -22 33 -52 33 -66 0
-17 2 -21 8 -12 7 11 11 10 23 -6 9 -11 16 -26 16 -32 0 -23 -29 -14 -47 15
-10 15 -27 37 -40 48 -14 15 -20 29 -16 43 3 12 1 21 -6 21 -6 0 -11 7 -11 15
0 22 5 19 40 -26z"/>
<path d="M3422 9670 c7 -10 14 -18 15 -16 6 6 -9 36 -18 36 -5 0 -4 -9 3 -20z"/>
<path d="M3455 9478 c4 -13 11 -27 16 -33 5 -5 4 5 -2 23 -12 36 -24 44 -14
10z"/>
<path d="M3477 9350 c-3 -11 -3 -20 -1 -20 2 0 8 9 14 20 6 11 7 20 2 20 -6 0
-12 -9 -15 -20z"/>
<path d="M3592 9330 c-11 -18 -10 -20 19 -20 24 0 30 4 27 17 -5 25 -31 27
-46 3z"/>
<path d="M3568 9033 c7 -3 16 -2 19 1 4 3 -2 6 -13 5 -11 0 -14 -3 -6 -6z"/>
<path d="M3535 8979 c-4 -6 -5 -13 -2 -16 7 -7 27 6 27 18 0 12 -17 12 -25 -2z"/>
<path d="M3520 8709 c0 -5 5 -7 10 -4 6 3 10 8 10 11 0 2 -4 4 -10 4 -5 0 -10
-5 -10 -11z"/>
<path d="M3037 8123 c-3 -5 -1 -17 4 -28 7 -17 8 -17 8 8 1 27 -4 34 -12 20z"/>
<path d="M2055 7729 c-4 -6 -5 -12 -2 -15 2 -3 7 2 10 11 7 17 1 20 -8 4z"/>
<path d="M4481 7765 c1 -40 1 -40 10 -10 5 18 5 33 -1 39 -7 7 -10 -4 -9 -29z"/>
<path d="M4372 7720 c0 -14 3 -34 8 -45 l9 -20 -1 20 c0 11 -4 31 -8 45 l-8
25 0 -25z"/>
<path d="M3908 7529 c-6 -4 -2 -12 11 -19 17 -9 26 -9 37 1 8 6 14 15 14 19 0
9 -47 8 -62 -1z"/>
<path d="M3818 7423 c12 -2 32 -2 45 0 12 2 2 4 -23 4 -25 0 -35 -2 -22 -4z"/>
<path d="M2550 7358 c0 -2 9 -11 20 -21 11 -9 20 -13 20 -7 0 5 -9 14 -20 20
-11 6 -20 9 -20 8z"/>
<path d="M3995 7290 c-3 -5 -1 -10 4 -10 6 0 11 5 11 10 0 6 -2 10 -4 10 -3 0
-8 -4 -11 -10z"/>
<path d="M2011 6968 c-5 -13 -11 -34 -15 -48 -6 -22 -5 -22 4 -7 14 21 31 77
24 77 -2 0 -8 -10 -13 -22z"/>
<path d="M3920 6866 c0 -2 7 -7 16 -10 8 -3 12 -2 9 4 -6 10 -25 14 -25 6z"/>
<path d="M3854 6796 c11 -9 27 -16 35 -15 14 0 14 1 1 6 -8 3 -24 10 -35 15
-20 9 -20 9 -1 -6z"/>
<path d="M3770 6730 c20 -13 33 -13 25 0 -3 6 -14 10 -23 10 -15 0 -15 -2 -2
-10z"/>
<path d="M4601 6744 c0 -11 3 -14 6 -6 3 7 2 16 -1 19 -3 4 -6 -2 -5 -13z"/>
<path d="M4612 6700 c0 -14 2 -19 5 -12 2 6 2 18 0 25 -3 6 -5 1 -5 -13z"/>
<path d="M4621 6654 c0 -11 3 -14 6 -6 3 7 2 16 -1 19 -3 4 -6 -2 -5 -13z"/>
<path d="M4631 6604 c0 -11 3 -14 6 -6 3 7 2 16 -1 19 -3 4 -6 -2 -5 -13z"/>
<path d="M4647 6522 c3 -34 9 -77 14 -95 5 -20 6 -7 2 37 -3 39 -9 81 -14 95
-5 16 -6 1 -2 -37z"/>
<path d="M4751 6764 c0 -11 3 -14 6 -6 3 7 2 16 -1 19 -3 4 -6 -2 -5 -13z"/>
<path d="M4153 6724 c0 -23 1 -24 9 -10 7 12 7 21 0 28 -6 6 -9 0 -9 -18z"/>
<path d="M3669 6499 c14 -5 30 -13 36 -17 6 -4 2 1 -8 11 -11 9 -27 17 -36 16
-10 0 -7 -4 8 -10z"/>
<path d="M3730 6460 c0 -5 5 -10 11 -10 5 0 7 5 4 10 -3 6 -8 10 -11 10 -2 0
-4 -4 -4 -10z"/>
<path d="M3860 6325 c0 -8 7 -15 16 -15 14 0 14 3 4 15 -7 8 -14 15 -16 15 -2
0 -4 -7 -4 -15z"/>
<path d="M5005 5893 c9 -21 29 -69 45 -108 58 -144 170 -355 169 -320 0 6 -6
19 -14 29 -8 11 -13 29 -9 40 3 14 2 17 -3 9 -11 -15 -129 219 -119 235 3 5 3
18 0 27 -5 11 -9 13 -14 5 -4 -6 -16 15 -29 49 -12 33 -26 63 -32 67 -5 3 -3
-11 6 -33z"/>
<path d="M5220 5445 c1 -6 7 -21 16 -35 l15 -25 -7 25 c-7 26 -24 52 -24 35z"/>
<path d="M2610 4375 c0 -27 2 -46 4 -44 8 8 10 78 3 85 -4 4 -7 -14 -7 -41z"/>
<path d="M2638 4329 c-3 -8 -3 -34 -1 -59 3 -25 4 -99 3 -165 0 -67 3 -132 8
-145 l10 -25 7 29 c9 35 -2 326 -13 357 -6 16 -10 18 -14 8z m19 -281 c-2 -13
-4 -5 -4 17 -1 22 1 32 4 23 2 -10 2 -28 0 -40z"/>
<path d="M2671 3884 c0 -11 3 -14 6 -6 3 7 2 16 -1 19 -3 4 -6 -2 -5 -13z"/>
<path d="M5294 4918 c7 -37 11 -42 25 -33 17 10 13 35 -5 35 -10 0 -14 6 -10
15 3 8 0 15 -6 15 -7 0 -8 -12 -4 -32z"/>
<path d="M2512 3015 c0 -5 6 -26 13 -45 7 -19 14 -28 14 -20 0 8 -6 29 -14 45
-7 17 -13 26 -13 20z"/>
<path d="M2822 2872 c-2 -33 9 -82 17 -77 17 10 17 72 1 83 -13 8 -17 6 -18
-6z"/>
<path d="M2473 2830 c0 -25 2 -35 4 -22 2 12 2 32 0 45 -2 12 -4 2 -4 -23z"/>
<path d="M2936 2835 c-9 -26 -7 -32 5 -12 6 10 9 21 6 23 -2 3 -7 -2 -11 -11z"/>
<path d="M2803 2742 c3 -15 0 -25 -9 -29 -8 -3 -14 -10 -14 -17 0 -6 -11 -24
-25 -39 -25 -26 -25 -27 -5 -27 11 0 28 9 37 19 9 11 20 18 23 16 10 -6 5 83
-5 92 -4 5 -5 -2 -2 -15z"/>
<path d="M2712 1305 c0 -16 2 -22 5 -12 2 9 2 23 0 30 -3 6 -5 -1 -5 -18z"/>
<path d="M2741 1113 c-1 -15 -7 -23 -18 -24 -10 0 -13 -3 -6 -5 22 -9 41 9 32
31 -7 19 -8 19 -8 -2z"/>
<path d="M2648 985 c-3 -3 -2 -26 2 -53 5 -31 4 -50 -4 -55 -6 -5 -1 -6 14 -3
14 3 36 6 50 7 14 0 19 3 13 6 -7 2 -13 10 -13 16 0 37 -22 87 -39 87 -10 0
-20 -2 -23 -5z m39 -87 c-3 -8 -6 -5 -6 6 -1 11 2 17 5 13 3 -3 4 -12 1 -19z"/>
<path d="M2795 900 l-40 -7 43 -2 c23 0 42 4 42 9 0 6 -1 9 -2 9 -2 -1 -21 -5
-43 -9z"/>
<path d="M2506 874 c-4 -14 -5 -28 -3 -31 3 -2 8 8 11 23 4 14 5 28 3 31 -3 2
-8 -8 -11 -23z"/>
<path d="M2598 863 c7 -3 16 -2 19 1 4 3 -2 6 -13 5 -11 0 -14 -3 -6 -6z"/>
<path d="M4163 2145 c0 -44 2 -61 4 -37 2 23 2 59 0 80 -2 20 -4 1 -4 -43z"/>
<path d="M4153 1960 c0 -41 2 -58 4 -37 2 20 2 54 0 75 -2 20 -4 3 -4 -38z"/>
<path d="M4143 1775 c0 -38 2 -53 4 -32 2 20 2 52 0 70 -2 17 -4 1 -4 -38z"/>
<path d="M4133 1595 c0 -33 2 -45 4 -27 2 18 2 45 0 60 -2 15 -4 0 -4 -33z"/>
<path d="M3903 1715 c0 -22 2 -30 4 -17 2 12 2 30 0 40 -3 9 -5 -1 -4 -23z"/>
<path d="M4041 1974 c0 -11 3 -14 6 -6 3 7 2 16 -1 19 -3 4 -6 -2 -5 -13z"/>
<path d="M4042 1920 c0 -14 2 -19 5 -12 2 6 2 18 0 25 -3 6 -5 1 -5 -13z"/>
<path d="M4034 1590 c0 -96 2 -136 3 -87 2 48 2 126 0 175 -1 48 -3 8 -3 -88z"/>
<path d="M4160 613 c12 -24 24 -43 26 -43 12 0 0 29 -22 55 l-25 30 21 -42z"/>
<path d="M4010 620 c6 -11 15 -20 20 -20 6 0 2 9 -7 20 -10 11 -19 20 -21 20
-1 0 2 -9 8 -20z"/>
<path d="M4110 583 c0 -4 5 -15 10 -23 8 -13 10 -13 10 2 0 9 -4 20 -10 23 -5
3 -10 3 -10 -2z"/>
<path d="M3690 9756 c0 -2 8 -10 18 -17 15 -13 16 -12 3 4 -13 16 -21 21 -21
13z"/>
<path d="M3640 9746 c0 -3 9 -10 20 -16 11 -6 20 -8 20 -6 0 3 -9 10 -20 16
-11 6 -20 8 -20 6z"/>
<path d="M3725 9669 c22 -25 46 -54 53 -65 7 -10 6 -5 -2 11 -8 17 -31 46 -52
65 l-38 35 39 -46z"/>
<path d="M3759 9695 c5 -11 17 -29 26 -40 l16 -20 -10 20 c-5 11 -17 29 -26
40 l-16 20 10 -20z"/>
<path d="M3180 9661 c0 -6 4 -13 10 -16 6 -3 7 1 4 9 -7 18 -14 21 -14 7z"/>
<path d="M3100 9645 c0 -5 5 -17 10 -25 5 -8 10 -10 10 -5 0 6 -5 17 -10 25
-5 8 -10 11 -10 5z"/>
<path d="M3055 9613 c8 -18 18 -33 20 -33 10 0 4 16 -16 40 l-20 25 16 -32z"/>
<path d="M3020 9605 c0 -15 -3 -16 -12 -7 -9 9 -16 6 -30 -16 -21 -32 -22 -66
-3 -107 l15 -30 -4 28 c-2 19 1 27 11 27 9 0 13 6 9 15 -3 9 0 15 10 15 13 0
15 6 9 27 -6 24 -5 25 11 12 15 -13 16 -12 9 11 -10 34 -25 49 -25 25z"/>
<path d="M3342 9160 c0 -14 2 -19 5 -12 2 6 2 18 0 25 -3 6 -5 1 -5 -13z"/>
<path d="M3839 8863 c-13 -16 -12 -17 4 -4 9 7 17 15 17 17 0 8 -8 3 -21 -13z"/>
<path d="M3395 8860 c-16 -7 -17 -9 -3 -9 9 -1 20 4 23 9 7 11 7 11 -20 0z"/>
<path d="M3250 8810 c-9 -6 -10 -10 -3 -10 6 0 15 5 18 10 8 12 4 12 -15 0z"/>
<path d="M3396 8757 c3 -10 9 -15 12 -12 3 3 0 11 -7 18 -10 9 -11 8 -5 -6z"/>
<path d="M3440 8755 c0 -8 2 -15 4 -15 2 0 6 7 10 15 3 8 1 15 -4 15 -6 0 -10
-7 -10 -15z"/>
<path d="M3761 8733 c-1 -6 -4 -20 -7 -30 -5 -17 -5 -17 6 0 6 10 9 23 6 30
-3 9 -5 9 -5 0z"/>
<path d="M3731 8654 c-6 -14 -8 -31 -4 -37 4 -7 10 3 14 23 9 43 6 48 -10 14z"/>
<path d="M3436 8653 c-6 -14 -5 -15 5 -6 7 7 10 15 7 18 -3 3 -9 -2 -12 -12z"/>
<path d="M2823 8245 c-23 -16 -66 -95 -52 -95 5 0 9 3 9 8 0 4 13 21 28 37 24
25 47 65 39 65 -1 0 -12 -7 -24 -15z"/>
<path d="M3700 8118 c0 -2 21 -21 48 -43 26 -21 38 -28 27 -16 -19 23 -75 66
-75 59z"/>
<path d="M4328 8103 c7 -3 16 -2 19 1 4 3 -2 6 -13 5 -11 0 -14 -3 -6 -6z"/>
<path d="M4378 8093 c7 -3 16 -2 19 1 4 3 -2 6 -13 5 -11 0 -14 -3 -6 -6z"/>
<path d="M4073 8073 c9 -2 23 -2 30 0 6 3 -1 5 -18 5 -16 0 -22 -2 -12 -5z"/>
<path d="M4138 8073 c7 -3 16 -2 19 1 4 3 -2 6 -13 5 -11 0 -14 -3 -6 -6z"/>
<path d="M4188 8073 c12 -2 30 -2 40 0 9 3 -1 5 -23 4 -22 0 -30 -2 -17 -4z"/>
<path d="M4550 8016 c0 -2 8 -10 18 -17 15 -13 16 -12 3 4 -13 16 -21 21 -21
13z"/>
<path d="M4615 7960 c10 -11 20 -20 23 -20 3 0 -3 9 -13 20 -10 11 -20 20 -23
20 -3 0 3 -9 13 -20z"/>
<path d="M2588 7789 c-32 -16 -58 -32 -58 -34 0 -3 27 8 60 25 33 17 60 32 60
35 0 7 2 8 -62 -26z"/>
<path d="M3065 7735 c-39 -13 -38 -13 35 -8 89 7 130 23 55 22 -27 0 -68 -7
-90 -14z"/>
<path d="M3178 7723 c-32 -5 -38 -23 -9 -23 26 0 51 10 51 21 0 5 -3 8 -7 8
-5 -1 -20 -4 -35 -6z"/>
<path d="M4781 7584 c0 -11 3 -14 6 -6 3 7 2 16 -1 19 -3 4 -6 -2 -5 -13z"/>
<path d="M2783 7513 c9 -2 23 -2 30 0 6 3 -1 5 -18 5 -16 0 -22 -2 -12 -5z"/>
<path d="M2843 7503 c9 -2 25 -2 35 0 9 3 1 5 -18 5 -19 0 -27 -2 -17 -5z"/>
<path d="M2758 7453 c6 -2 18 -2 25 0 6 3 1 5 -13 5 -14 0 -19 -2 -12 -5z"/>
<path d="M3005 7420 c27 -12 43 -12 25 0 -8 5 -22 9 -30 9 -10 0 -8 -3 5 -9z"/>
<path d="M3688 7343 c6 -2 18 -2 25 0 6 3 1 5 -13 5 -14 0 -19 -2 -12 -5z"/>
<path d="M4481 7274 c0 -11 3 -14 6 -6 3 7 2 16 -1 19 -3 4 -6 -2 -5 -13z"/>
<path d="M4502 7190 c0 -14 2 -19 5 -12 2 6 2 18 0 25 -3 6 -5 1 -5 -13z"/>
<path d="M3380 7175 c0 -8 5 -15 10 -15 6 0 10 7 10 15 0 8 -4 15 -10 15 -5 0
-10 -7 -10 -15z"/>
<path d="M4511 7144 c0 -11 3 -14 6 -6 3 7 2 16 -1 19 -3 4 -6 -2 -5 -13z"/>
<path d="M3712 7100 c0 -14 2 -19 5 -12 2 6 2 18 0 25 -3 6 -5 1 -5 -13z"/>
<path d="M4343 7065 c0 -33 2 -45 4 -27 2 18 2 45 0 60 -2 15 -4 0 -4 -33z"/>
<path d="M3370 7025 c0 -11 48 -48 85 -66 22 -11 31 -14 21 -7 -10 7 -38 28
-62 45 -24 18 -44 31 -44 28z"/>
<path d="M4911 6854 c0 -11 3 -14 6 -6 3 7 2 16 -1 19 -3 4 -6 -2 -5 -13z"/>
<path d="M2688 6823 c7 -3 16 -2 19 1 4 3 -2 6 -13 5 -11 0 -14 -3 -6 -6z"/>
<path d="M4371 6754 c0 -11 3 -14 6 -6 3 7 2 16 -1 19 -3 4 -6 -2 -5 -13z"/>
<path d="M4276 6639 c-10 -33 -16 -63 -13 -65 2 -2 11 24 21 57 9 34 15 63 13
66 -2 2 -12 -24 -21 -58z"/>
<path d="M3256 6675 c-3 -9 -10 -13 -16 -10 -6 3 -13 -1 -16 -10 -4 -8 -14
-14 -23 -13 -19 4 -29 -48 -12 -65 8 -8 11 -5 11 10 0 38 18 34 25 -4 5 -27 9
-33 16 -22 10 17 11 -113 0 -151 l-7 -25 -7 25 c-5 19 -9 22 -16 11 -5 -8 -16
-11 -24 -8 -9 3 -19 -4 -26 -21 -10 -21 -14 -23 -22 -11 -6 10 -9 11 -9 1 0
-7 -4 -10 -10 -7 -5 3 -10 15 -10 26 0 22 -24 22 -26 1 -1 -7 -2 -17 -3 -23 0
-5 -6 -7 -13 -3 -6 4 -17 -1 -25 -11 -8 -12 -13 -14 -13 -6 0 10 -3 11 -14 2
-10 -9 -16 -9 -21 -1 -5 8 -11 6 -19 -6 -9 -12 -15 -14 -20 -6 -12 20 -17 90
-6 97 5 3 10 15 10 26 0 10 5 19 10 19 6 0 10 -10 10 -22 0 -32 16 -10 28 40
6 26 6 44 0 48 -5 3 -4 12 4 22 16 20 -49 -24 -78 -53 -42 -42 -47 -56 -53
-155 -5 -86 -4 -100 11 -109 22 -14 55 -14 63 -1 3 6 19 10 35 10 16 0 31 4
35 9 3 6 13 10 23 9 9 0 40 3 67 7 28 3 55 7 60 7 6 1 22 -2 37 -5 17 -5 31
-2 40 6 7 8 18 12 24 10 25 -8 36 55 32 194 -3 125 -5 141 -24 161 -19 20 -22
21 -28 7z m-269 -146 c-8 -21 -13 -26 -15 -14 -5 21 5 45 17 45 5 0 4 -13 -2
-31z"/>
<path d="M3118 6614 c-29 -15 -34 -29 -18 -54 8 -13 10 -12 11 5 1 11 1 23 0
28 0 4 4 7 10 7 6 0 9 -7 6 -15 -4 -8 -2 -17 3 -20 8 -5 26 52 18 60 -1 2 -15
-3 -30 -11z"/>
<path d="M3043 6578 c-12 -17 -14 -58 -3 -58 12 0 41 56 33 64 -10 9 -20 7
-30 -6z"/>
<path d="M4251 6544 c0 -11 3 -14 6 -6 3 7 2 16 -1 19 -3 4 -6 -2 -5 -13z"/>
<path d="M4450 6535 c0 -5 5 -17 10 -25 5 -8 10 -10 10 -5 0 6 -5 17 -10 25
-5 8 -10 11 -10 5z"/>
<path d="M4241 6504 c0 -11 3 -14 6 -6 3 7 2 16 -1 19 -3 4 -6 -2 -5 -13z"/>
<path d="M4231 6464 c0 -11 3 -14 6 -6 3 7 2 16 -1 19 -3 4 -6 -2 -5 -13z"/>
<path d="M4221 6424 c0 -11 3 -14 6 -6 3 7 2 16 -1 19 -3 4 -6 -2 -5 -13z"/>
<path d="M4108 6314 c-21 -34 -36 -46 -75 -59 -26 -8 -36 -14 -20 -12 15 3 27
-1 27 -7 0 -6 5 -3 11 7 5 9 14 17 19 17 6 0 10 -8 11 -17 0 -11 5 -6 12 12 7
17 20 45 30 63 27 50 16 47 -15 -4z"/>
<path d="M4191 6284 c0 -11 3 -14 6 -6 3 7 2 16 -1 19 -3 4 -6 -2 -5 -13z"/>
<path d="M3200 6253 c0 -7 -7 -13 -15 -13 -11 0 -15 -12 -15 -47 0 -35 3 -44
10 -33 7 11 10 11 10 2 0 -7 5 -10 10 -7 6 4 13 -8 17 -25 4 -22 8 -28 14 -18
5 8 8 -16 7 -57 -1 -61 -2 -65 -8 -30 l-7 40 -2 -40 c-1 -22 -6 -47 -11 -55
-7 -12 -11 -10 -19 10 -5 14 -10 19 -10 11 -1 -8 -4 -11 -7 -8 -4 3 -16 0 -28
-8 -26 -19 -36 -19 -36 0 0 8 -4 15 -10 15 -5 0 -10 -5 -10 -11 0 -5 -4 -7
-10 -4 -5 3 -10 1 -10 -5 0 -7 -6 -8 -17 -2 -10 5 -23 8 -29 5 -6 -2 -16 7
-22 19 -6 13 -11 18 -11 11 -1 -17 -31 -4 -31 14 0 8 -4 11 -10 8 -6 -4 -10 6
-10 22 0 22 -2 25 -10 13 -5 -8 -10 -12 -10 -7 0 12 24 51 38 60 6 4 12 18 13
30 0 20 1 21 8 3 7 -18 8 -18 14 -2 4 10 7 30 7 44 0 25 -4 27 -38 27 -20 0
-47 -6 -59 -13 -22 -12 -23 -19 -23 -137 0 -77 4 -125 10 -125 6 0 10 -6 10
-14 0 -22 29 -40 69 -43 20 -2 63 -5 96 -7 33 -3 79 -9 102 -14 46 -10 66 2
111 65 20 29 22 44 22 156 0 83 -4 128 -12 139 -17 22 -58 33 -58 17 0 -7 -6
-4 -15 7 -8 11 -15 14 -15 7z"/>
<path d="M3093 6205 c0 -27 2 -38 4 -22 2 15 2 37 0 50 -2 12 -4 0 -4 -28z"/>
<path d="M3136 6219 c-8 -44 -8 -49 7 -49 8 0 13 15 13 40 1 48 -11 53 -20 9z"/>
<path d="M3020 6213 c0 -10 5 -25 10 -33 7 -11 10 -7 10 18 0 17 -4 32 -10 32
-5 0 -10 -8 -10 -17z"/>
<path d="M4065 6209 c-4 -6 -5 -12 -2 -15 2 -3 7 2 10 11 7 17 1 20 -8 4z"/>
<path d="M1485 6120 c-4 -17 -5 -34 -2 -36 2 -3 7 10 11 27 8 42 0 50 -9 9z"/>
<path d="M4192 6100 c0 -14 2 -19 5 -12 2 6 2 18 0 25 -3 6 -5 1 -5 -13z"/>
<path d="M4596 6070 c3 -14 11 -32 16 -40 6 -10 7 -7 2 10 -3 14 -11 32 -16
40 -6 10 -7 7 -2 -10z"/>
<path d="M4660 5895 c0 -5 5 -17 10 -25 5 -8 10 -10 10 -5 0 6 -5 17 -10 25
-5 8 -10 11 -10 5z"/>
<path d="M3938 5853 c6 -2 18 -2 25 0 6 3 1 5 -13 5 -14 0 -19 -2 -12 -5z"/>
<path d="M3180 5841 c0 -4 -54 -7 -120 -7 -66 1 -120 -2 -120 -6 0 -4 -10 -7
-22 -5 -22 2 -23 0 -21 -87 3 -135 42 -297 149 -631 41 -127 111 -277 149
-320 26 -29 26 -29 20 -5 l-7 25 26 -24 c18 -17 26 -20 26 -10 0 9 8 5 20 -11
16 -20 19 -21 13 -5 -6 17 -5 18 9 7 13 -10 17 -10 21 2 9 24 10 182 2 196 -5
9 -4 11 3 6 7 -4 12 -3 12 3 0 5 -5 11 -11 13 -7 2 -12 126 -16 380 l-6 377
-46 49 c-44 47 -81 71 -81 53z m-220 -103 c0 -21 5 -38 10 -38 6 0 10 15 10
33 0 18 6 39 12 45 10 10 15 3 24 -35 8 -33 12 -40 13 -22 0 15 8 40 16 55 13
26 15 27 15 7 0 -12 5 -25 10 -28 6 -3 10 1 10 9 0 25 19 18 26 -9 8 -33 24
-32 24 1 0 30 23 28 28 -2 6 -32 22 -40 22 -11 0 40 27 23 35 -21 11 -66 14
-228 5 -258 l-8 -29 -2 30 c0 17 -7 44 -15 60 l-13 30 -2 -35 c-1 -19 -5 -44
-10 -55 -9 -19 -9 -19 -16 3 -7 25 -15 27 -31 11 -9 -9 -14 -5 -19 15 -10 40
-24 31 -25 -16 -1 -41 -2 -41 -15 21 -20 92 -27 89 -20 -9 l6 -85 -36 108
c-20 60 -37 107 -39 105 -2 -2 3 -32 11 -68 18 -84 17 -117 -2 -66 -20 54 -28
59 -21 11 l6 -40 -13 40 c-19 59 -28 113 -16 95 11 -18 13 -5 3 41 -5 28 -7
30 -14 14 -8 -20 -2 88 7 134 8 36 24 7 24 -41z m-43 -15 c-2 -16 -4 -5 -4 22
0 28 2 40 4 28 2 -13 2 -35 0 -50z"/>
<path d="M2640 5793 c0 -5 29 -49 64 -99 36 -49 72 -99 81 -112 19 -26 32 -23
20 5 -5 10 -7 21 -7 26 1 4 -2 7 -7 7 -6 0 -42 41 -80 91 -39 50 -71 87 -71
82z"/>
<path d="M4234 5710 c0 -52 1 -74 3 -47 2 26 2 68 0 95 -2 26 -3 4 -3 -48z"/>
<path d="M3639 5753 l-24 -28 28 24 c25 23 32 31 24 31 -2 0 -14 -12 -28 -27z"/>
<path d="M4735 5740 c9 -16 18 -30 21 -30 2 0 -2 14 -11 30 -9 17 -18 30 -21
30 -2 0 2 -13 11 -30z"/>
<path d="M2720 5746 c0 -7 70 -106 75 -106 2 0 1 9 -2 20 -4 16 -2 19 11 14 9
-4 2 9 -16 27 -18 18 -35 34 -38 34 -3 0 -11 4 -17 8 -7 5 -13 6 -13 3z m55
-46 l20 -25 -22 19 c-13 11 -23 24 -23 29 0 6 1 8 3 6 1 -2 11 -15 22 -29z"/>
<path d="M4770 5680 c6 -11 13 -20 16 -20 2 0 0 9 -6 20 -6 11 -13 20 -16 20
-2 0 0 -9 6 -20z"/>
<path d="M4820 5601 c0 -6 4 -13 10 -16 6 -3 7 1 4 9 -7 18 -14 21 -14 7z"/>
<path d="M4850 5551 c5 -11 15 -23 21 -27 6 -3 3 5 -6 20 -20 30 -30 35 -15 7z"/>
<path d="M4885 5500 c14 -26 88 -130 92 -130 5 0 -3 13 -46 75 -37 54 -60 81
-46 55z"/>
<path d="M3427 5443 c-4 -4 -21 -7 -37 -8 -16 -1 -33 -4 -36 -8 -9 -8 -13
-147 -5 -148 3 -1 20 -2 37 -4 18 -1 39 -5 47 -8 8 -3 24 5 37 18 l22 23 -21
12 c-12 6 -31 8 -43 4 -18 -5 -19 -4 -7 8 7 8 23 14 34 13 11 -1 31 -3 44 -4
21 -1 22 -3 10 -18 -13 -17 -12 -17 4 -4 18 14 18 16 1 28 -27 20 -11 25 25 7
39 -20 51 -13 17 10 -14 9 -39 29 -55 45 -32 31 -63 46 -74 34z m38 -143 c3
-5 -3 -10 -14 -10 -12 0 -21 5 -21 10 0 6 6 10 14 10 8 0 18 -4 21 -10z"/>
<path d="M1216 5423 c-6 -14 -5 -15 5 -6 7 7 10 15 7 18 -3 3 -9 -2 -12 -12z"/>
<path d="M5005 5316 c10 -14 19 -26 22 -26 7 0 -17 39 -28 46 -6 3 -3 -5 6
-20z"/>
<path d="M4301 5314 c0 -11 3 -14 6 -6 3 7 2 16 -1 19 -3 4 -6 -2 -5 -13z"/>
<path d="M3476 5272 c-3 -5 1 -9 9 -9 8 0 12 4 9 9 -3 4 -7 8 -9 8 -2 0 -6 -4
-9 -8z"/>
<path d="M4312 5255 c0 -16 2 -22 5 -12 2 9 2 23 0 30 -3 6 -5 -1 -5 -18z"/>
<path d="M3411 5241 c-19 -12 -6 -41 17 -41 18 0 50 26 41 34 -12 10 -46 14
-58 7z m39 -21 c0 -5 -7 -10 -15 -10 -8 0 -15 5 -15 10 0 6 7 10 15 10 8 0 15
-4 15 -10z"/>
<path d="M1220 5220 c8 -5 20 -10 25 -10 6 0 3 5 -5 10 -8 5 -19 10 -25 10 -5
0 -3 -5 5 -10z"/>
<path d="M3330 5130 c0 -46 2 -81 5 -78 8 8 10 146 2 154 -4 4 -7 -30 -7 -76z"/>
<path d="M1349 5166 c24 -12 50 -34 57 -47 9 -16 13 -19 14 -8 0 9 -8 23 -17
31 -21 18 -78 48 -90 48 -4 -1 12 -11 36 -24z"/>
<path d="M3400 5145 c-10 -12 -9 -15 4 -15 10 0 14 5 11 10 -3 6 -1 10 4 10 6
0 11 -4 11 -10 0 -5 5 -10 10 -10 6 0 10 7 10 15 0 8 -8 15 -19 15 -10 0 -24
-7 -31 -15z"/>
<path d="M1077 4911 c-99 -100 -126 -133 -94 -115 6 4 20 14 30 22 23 20 32
10 17 -20 -10 -19 -10 -21 1 -10 19 18 29 15 29 -8 0 -44 23 -14 80 107 33 69
60 128 60 130 0 14 -31 -12 -123 -106z"/>
<path d="M1247 4896 c-9 -67 -20 -131 -23 -141 -5 -12 -4 -16 4 -11 6 3 13 2
17 -4 10 -16 21 -12 33 13 6 12 11 16 11 10 1 -7 5 -13 9 -13 9 0 9 8 -9 150
-6 52 -14 101 -18 107 -4 7 -14 -43 -24 -111z"/>
<path d="M5820 4897 c0 -2 15 -16 33 -33 l32 -29 -29 33 c-28 30 -36 37 -36
29z"/>
<path d="M5735 4860 c3 -5 14 -10 23 -10 15 0 15 2 2 10 -20 13 -33 13 -25 0z"/>
<path d="M5292 4780 c0 -14 2 -19 5 -12 2 6 2 18 0 25 -3 6 -5 1 -5 -13z"/>
<path d="M5810 4750 c24 -23 54 -46 65 -52 26 -14 22 -10 -50 46 -59 46 -59
46 -15 6z"/>
<path d="M924 4707 c-37 -82 -38 -85 -22 -62 36 49 68 114 60 119 -5 3 -22
-22 -38 -57z"/>
<path d="M896 4743 c-6 -14 -5 -15 5 -6 7 7 10 15 7 18 -3 3 -9 -2 -12 -12z"/>
<path d="M1026 4669 c-35 -93 -28 -100 9 -9 16 39 26 73 23 75 -3 3 -17 -27
-32 -66z"/>
<path d="M5303 4680 c0 -36 2 -50 4 -32 2 17 2 47 0 65 -2 17 -4 3 -4 -33z"/>
<path d="M1075 4677 c-8 -20 -15 -41 -15 -47 0 -6 -9 -29 -21 -51 -11 -22 -19
-45 -17 -51 2 -6 21 31 41 82 20 51 35 95 32 98 -3 3 -12 -11 -20 -31z"/>
<path d="M1186 4594 c-16 -63 -26 -117 -24 -119 2 -3 17 47 33 110 15 63 26
117 24 120 -3 2 -18 -47 -33 -111z"/>
<path d="M5750 4695 c0 -5 5 -17 10 -25 5 -8 10 -10 10 -5 0 6 -5 17 -10 25
-5 8 -10 11 -10 5z"/>
<path d="M1302 4660 c0 -14 2 -19 5 -12 2 6 2 18 0 25 -3 6 -5 1 -5 -13z"/>
<path d="M1162 4650 c0 -14 2 -19 5 -12 2 6 2 18 0 25 -3 6 -5 1 -5 -13z"/>
<path d="M850 4559 c-12 -23 -20 -43 -18 -45 3 -2 14 17 26 41 27 56 20 60 -8
4z"/>
<path d="M5690 4510 c6 -11 13 -20 16 -20 2 0 0 9 -6 20 -6 11 -13 20 -16 20
-2 0 0 -9 6 -20z"/>
<path d="M1006 4495 c-9 -26 -7 -32 5 -12 6 10 9 21 6 23 -2 3 -7 -2 -11 -11z"/>
<path d="M792 4452 l-23 -37 26 28 c14 15 25 32 25 38 0 14 -3 11 -28 -29z"/>
<path d="M3381 4474 c0 -11 3 -14 6 -6 3 7 2 16 -1 19 -3 4 -6 -2 -5 -13z"/>
<path d="M4401 4454 c0 -11 3 -14 6 -6 3 7 2 16 -1 19 -3 4 -6 -2 -5 -13z"/>
<path d="M1290 4403 c1 -27 1 -27 15 -9 19 25 19 36 0 36 -10 0 -15 -10 -15
-27z"/>
<path d="M5541 4394 c0 -11 3 -14 6 -6 3 7 2 16 -1 19 -3 4 -6 -2 -5 -13z"/>
<path d="M930 4379 c0 -5 5 -9 11 -9 7 0 9 -11 5 -30 -7 -38 8 -31 22 9 9 26
8 29 -14 34 -13 2 -24 0 -24 -4z"/>
<path d="M3393 4320 c0 -30 2 -43 4 -27 2 15 2 39 0 55 -2 15 -4 2 -4 -28z"/>
<path d="M920 4349 c0 -8 -3 -24 -6 -36 -5 -17 -2 -23 10 -23 12 0 14 7 9 33
-7 35 -13 48 -13 26z"/>
<path d="M5770 4351 c0 -6 4 -13 10 -16 6 -3 7 1 4 9 -7 18 -14 21 -14 7z"/>
<path d="M5393 4280 c0 -30 2 -43 4 -27 2 15 2 39 0 55 -2 15 -4 2 -4 -28z"/>
<path d="M5721 4314 c0 -11 3 -14 6 -6 3 7 2 16 -1 19 -3 4 -6 -2 -5 -13z"/>
<path d="M5804 4295 c8 -17 24 -39 37 -50 23 -19 22 -19 -1 11 -14 17 -31 40
-38 50 -7 11 -6 7 2 -11z"/>
<path d="M5561 4294 c0 -11 3 -14 6 -6 3 7 2 16 -1 19 -3 4 -6 -2 -5 -13z"/>
<path d="M5731 4274 c0 -11 3 -14 6 -6 3 7 2 16 -1 19 -3 4 -6 -2 -5 -13z"/>
<path d="M5320 4226 c0 -2 8 -10 18 -17 15 -13 16 -12 3 4 -13 16 -21 21 -21
13z"/>
<path d="M5370 4210 c-9 -6 -10 -10 -3 -10 6 0 15 5 18 10 8 12 4 12 -15 0z"/>
<path d="M5751 4204 c0 -11 3 -14 6 -6 3 7 2 16 -1 19 -3 4 -6 -2 -5 -13z"/>
<path d="M3402 4185 c0 -16 2 -22 5 -12 2 9 2 23 0 30 -3 6 -5 -1 -5 -18z"/>
<path d="M5762 4150 c0 -14 2 -19 5 -12 2 6 2 18 0 25 -3 6 -5 1 -5 -13z"/>
<path d="M5695 4120 c10 -11 20 -20 23 -20 3 0 -3 9 -13 20 -10 11 -20 20 -23
20 -3 0 3 -9 13 -20z"/>
<path d="M3412 4100 c0 -14 2 -19 5 -12 2 6 2 18 0 25 -3 6 -5 1 -5 -13z"/>
<path d="M3422 4030 c0 -14 2 -19 5 -12 2 6 2 18 0 25 -3 6 -5 1 -5 -13z"/>
<path d="M4403 3995 c0 -27 2 -38 4 -22 2 15 2 37 0 50 -2 12 -4 0 -4 -28z"/>
<path d="M3432 3980 c0 -14 2 -19 5 -12 2 6 2 18 0 25 -3 6 -5 1 -5 -13z"/>
<path d="M3442 3920 c0 -14 2 -19 5 -12 2 6 2 18 0 25 -3 6 -5 1 -5 -13z"/>
<path d="M4393 3865 c0 -22 2 -30 4 -17 2 12 2 30 0 40 -3 9 -5 -1 -4 -23z"/>
<path d="M3451 3874 c0 -11 3 -14 6 -6 3 7 2 16 -1 19 -3 4 -6 -2 -5 -13z"/>
<path d="M3461 3824 c0 -11 3 -14 6 -6 3 7 2 16 -1 19 -3 4 -6 -2 -5 -13z"/>
<path d="M3482 3740 c0 -14 2 -19 5 -12 2 6 2 18 0 25 -3 6 -5 1 -5 -13z"/>
<path d="M4372 3665 c0 -16 2 -22 5 -12 2 9 2 23 0 30 -3 6 -5 -1 -5 -18z"/>
<path d="M3501 3644 c0 -11 3 -14 6 -6 3 7 2 16 -1 19 -3 4 -6 -2 -5 -13z"/>
<path d="M4361 3584 c0 -11 3 -14 6 -6 3 7 2 16 -1 19 -3 4 -6 -2 -5 -13z"/>
<path d="M4351 3514 c0 -11 3 -14 6 -6 3 7 2 16 -1 19 -3 4 -6 -2 -5 -13z"/>
<path d="M4342 3450 c0 -14 2 -19 5 -12 2 6 2 18 0 25 -3 6 -5 1 -5 -13z"/>
<path d="M4332 3390 c0 -14 2 -19 5 -12 2 6 2 18 0 25 -3 6 -5 1 -5 -13z"/>
<path d="M3552 3340 c0 -19 2 -27 5 -17 2 9 2 25 0 35 -3 9 -5 1 -5 -18z"/>
<path d="M3563 3225 c0 -22 2 -30 4 -17 2 12 2 30 0 40 -3 9 -5 -1 -4 -23z"/>
<path d="M4282 3203 c-15 -48 -8 -55 8 -8 7 20 10 38 8 41 -3 2 -10 -13 -16
-33z"/>
<path d="M3572 3095 c0 -16 2 -22 5 -12 2 9 2 23 0 30 -3 6 -5 -1 -5 -18z"/>
<path d="M4244 2925 c0 -77 2 -107 3 -67 2 40 2 103 0 140 -2 37 -3 4 -3 -73z"/>
<path d="M3582 3020 c0 -19 2 -27 5 -17 2 9 2 25 0 35 -3 9 -5 1 -5 -18z"/>
<path d="M3592 2960 c0 -14 2 -19 5 -12 2 6 2 18 0 25 -3 6 -5 1 -5 -13z"/>
<path d="M3601 2894 c0 -11 3 -14 6 -6 3 7 2 16 -1 19 -3 4 -6 -2 -5 -13z"/>
<path d="M4242 2645 c0 -16 2 -22 5 -12 2 9 2 23 0 30 -3 6 -5 -1 -5 -18z"/>
<path d="M4252 2580 c0 -14 2 -19 5 -12 2 6 2 18 0 25 -3 6 -5 1 -5 -13z"/>
<path d="M3683 2520 c0 -30 2 -43 4 -27 2 15 2 39 0 55 -2 15 -4 2 -4 -28z"/>
<path d="M4262 2530 c0 -14 2 -19 5 -12 2 6 2 18 0 25 -3 6 -5 1 -5 -13z"/>
<path d="M4272 2480 c0 -14 2 -19 5 -12 2 6 2 18 0 25 -3 6 -5 1 -5 -13z"/>
<path d="M4282 2430 c0 -14 2 -19 5 -12 2 6 2 18 0 25 -3 6 -5 1 -5 -13z"/>
<path d="M3672 2415 c0 -16 2 -22 5 -12 2 9 2 23 0 30 -3 6 -5 -1 -5 -18z"/>
<path d="M4292 2380 c0 -14 2 -19 5 -12 2 6 2 18 0 25 -3 6 -5 1 -5 -13z"/>
<path d="M3661 2354 c0 -11 3 -14 6 -6 3 7 2 16 -1 19 -3 4 -6 -2 -5 -13z"/>
<path d="M4302 2315 c0 -16 2 -22 5 -12 2 9 2 23 0 30 -3 6 -5 -1 -5 -18z"/>
<path d="M3652 2280 c0 -14 2 -19 5 -12 2 6 2 18 0 25 -3 6 -5 1 -5 -13z"/>
<path d="M4312 2210 c0 -19 2 -27 5 -17 2 9 2 25 0 35 -3 9 -5 1 -5 -18z"/>
<path d="M3644 2115 c0 -55 1 -76 3 -47 2 29 2 74 0 100 -2 26 -3 2 -3 -53z"/>
<path d="M4313 2095 c0 -33 2 -45 4 -27 2 18 2 45 0 60 -2 15 -4 0 -4 -33z"/>
<path d="M3651 1964 c0 -11 3 -14 6 -6 3 7 2 16 -1 19 -3 4 -6 -2 -5 -13z"/>
<path d="M4302 1960 c0 -14 2 -19 5 -12 2 6 2 18 0 25 -3 6 -5 1 -5 -13z"/>
<path d="M3661 1904 c0 -11 3 -14 6 -6 3 7 2 16 -1 19 -3 4 -6 -2 -5 -13z"/>
<path d="M4292 1890 c0 -14 2 -19 5 -12 2 6 2 18 0 25 -3 6 -5 1 -5 -13z"/>
<path d="M4282 1835 c0 -16 2 -22 5 -12 2 9 2 23 0 30 -3 6 -5 -1 -5 -18z"/>
<path d="M4272 1780 c0 -14 2 -19 5 -12 2 6 2 18 0 25 -3 6 -5 1 -5 -13z"/>
<path d="M3701 1744 c0 -11 3 -14 6 -6 3 7 2 16 -1 19 -3 4 -6 -2 -5 -13z"/>
<path d="M4262 1725 c0 -16 2 -22 5 -12 2 9 2 23 0 30 -3 6 -5 -1 -5 -18z"/>
<path d="M4252 1670 c0 -14 2 -19 5 -12 2 6 2 18 0 25 -3 6 -5 1 -5 -13z"/>
<path d="M3731 1644 c0 -11 3 -14 6 -6 3 7 2 16 -1 19 -3 4 -6 -2 -5 -13z"/>
<path d="M4242 1620 c0 -14 2 -19 5 -12 2 6 2 18 0 25 -3 6 -5 1 -5 -13z"/>
<path d="M4225 1545 c-3 -26 -4 -49 -2 -51 3 -3 8 16 12 41 3 26 4 49 2 51 -3
3 -8 -16 -12 -41z"/>
<path d="M4212 1460 c0 -14 2 -19 5 -12 2 6 2 18 0 25 -3 6 -5 1 -5 -13z"/>
<path d="M3781 1434 c0 -11 3 -14 6 -6 3 7 2 16 -1 19 -3 4 -6 -2 -5 -13z"/>
<path d="M3792 1380 c0 -14 2 -19 5 -12 2 6 2 18 0 25 -3 6 -5 1 -5 -13z"/>
<path d="M4191 1344 c0 -11 3 -14 6 -6 3 7 2 16 -1 19 -3 4 -6 -2 -5 -13z"/>
<path d="M3802 1330 c0 -14 2 -19 5 -12 2 6 2 18 0 25 -3 6 -5 1 -5 -13z"/>
<path d="M4181 1284 c0 -11 3 -14 6 -6 3 7 2 16 -1 19 -3 4 -6 -2 -5 -13z"/>
<path d="M3811 1274 c0 -11 3 -14 6 -6 3 7 2 16 -1 19 -3 4 -6 -2 -5 -13z"/>
<path d="M3823 1195 c0 -22 2 -30 4 -17 2 12 2 30 0 40 -3 9 -5 -1 -4 -23z"/>
<path d="M4171 1214 c0 -11 3 -14 6 -6 3 7 2 16 -1 19 -3 4 -6 -2 -5 -13z"/>
<path d="M4162 1135 c0 -16 2 -22 5 -12 2 9 2 23 0 30 -3 6 -5 -1 -5 -18z"/>
<path d="M3792 880 c0 -19 2 -27 5 -17 2 9 2 25 0 35 -3 9 -5 1 -5 -18z"/>
<path d="M3801 814 c0 -11 3 -14 6 -6 3 7 2 16 -1 19 -3 4 -6 -2 -5 -13z"/>
<path d="M3801 724 c0 -11 3 -14 6 -6 3 7 2 16 -1 19 -3 4 -6 -2 -5 -13z"/>
<path d="M3791 684 c0 -11 3 -14 6 -6 3 7 2 16 -1 19 -3 4 -6 -2 -5 -13z"/>
<path d="M4230 674 c0 -6 7 -19 16 -30 14 -18 14 -18 3 6 -14 31 -19 36 -19
24z"/>
<path d="M3783 625 c0 -22 2 -30 4 -17 2 12 2 30 0 40 -3 9 -5 -1 -4 -23z"/>
<path d="M3790 543 c0 -6 8 -17 18 -24 16 -13 16 -13 2 6 -8 11 -16 22 -17 24
-2 2 -3 0 -3 -6z"/>
<path d="M4368 492 c24 -29 49 -55 55 -59 7 -4 -8 16 -31 45 -24 29 -49 55
-55 59 -7 4 8 -16 31 -45z"/>
<path d="M4200 426 c0 -10 60 -106 66 -106 11 0 1 21 -31 66 -19 27 -35 45
-35 40z"/>
<path d="M4385 390 c3 -5 8 -10 11 -10 2 0 4 5 4 10 0 6 -5 10 -11 10 -5 0 -7
-4 -4 -10z"/>
<path d="M4420 381 c0 -6 4 -13 10 -16 6 -3 7 1 4 9 -7 18 -14 21 -14 7z"/>
<path d="M4067 353 c-4 -3 -7 -11 -7 -17 0 -6 5 -5 12 2 6 6 9 14 7 17 -3 3
-9 2 -12 -2z"/>
<path d="M4350 341 c5 -11 15 -23 21 -27 6 -3 3 5 -6 20 -20 30 -30 35 -15 7z"/>
<path d="M3920 325 c13 -14 26 -25 28 -25 3 0 -5 11 -18 25 -13 14 -26 25 -28
25 -3 0 5 -11 18 -25z"/>
<path d="M4400 302 c-23 -22 -23 -24 -3 -13 12 6 25 16 28 22 13 20 0 15 -25
-9z"/>
<path d="M4010 313 c0 -16 46 -43 72 -43 18 0 20 2 8 9 -8 6 -18 7 -23 4 -5
-3 -19 5 -33 18 -13 12 -24 18 -24 12z"/>
<path d="M4113 299 c-2 -23 3 -25 10 -4 4 8 3 16 -1 19 -4 3 -9 -4 -9 -15z"/>
<path d="M4280 311 c0 -13 28 -33 33 -23 3 4 -3 13 -14 20 -10 7 -19 8 -19 3z"/>
<path d="M4150 272 c0 -26 -14 -35 -70 -43 l-45 -6 41 -2 c28 -1 50 6 66 19
14 10 29 16 34 12 5 -4 2 2 -6 13 -8 11 -16 22 -17 24 -2 2 -3 -5 -3 -17z"/>
<path d="M4254 259 c-19 -22 -19 -22 3 -10 12 6 30 8 40 4 19 -7 18 -5 -8 15
-13 10 -19 8 -35 -9z"/>
<path d="M3980 266 c0 -2 8 -10 18 -17 15 -13 16 -12 3 4 -13 16 -21 21 -21
13z"/>
</g>
</svg>
